<svg xmlns="http://www.w3.org/2000/svg" viewBox="0 0 867.99 2304.24"><defs><style>.cls-1,.cls-9{fill:#cee4ec;}.cls-10,.cls-2{fill:#10567d;}.cls-3{fill:#fff;}.cls-4{font-size:48px;}.cls-4,.cls-6{fill:#003043;}.cls-10,.cls-4,.cls-6,.cls-9{font-family:TBCGoStd-ExBold-90ms-RKSJ-H, TBCGothic Std;}.cls-5{fill:#231815;}.cls-10,.cls-6,.cls-9{font-size:24px;}.cls-7{letter-spacing:-0.5em;}.cls-8{letter-spacing:0.25em;}.cls-11{fill:none;stroke:#fff;stroke-miterlimit:10;stroke-width:6px;}</style></defs><title>アートボード 4</title><g id="レイヤー_2" data-name="レイヤー 2"><rect class="cls-1" x="64.96" y="551.57" width="738.07" height="1715.77" rx="105.52" ry="105.52"/><polygon class="cls-2" points="659.53 1298.18 659.53 1252.48 558.29 1252.48 558.29 1298.92 553.68 1298.92 553.68 1252.48 447.68 1252.48 447.68 1298.92 443.54 1298.92 443.54 1252.48 334.86 1252.48 334.86 1298.92 328.87 1298.92 328.87 1252.48 222.54 1252.48 222.54 1432.61 328.87 1432.61 328.87 1380.38 334.86 1380.38 334.86 1432.61 443.54 1432.61 443.54 1380.38 447.68 1380.38 447.68 1432.61 553.68 1432.61 553.68 1380.38 558.29 1380.38 558.29 1432.61 659.53 1432.61 659.53 1382.55 675.05 1374.32 675.05 1307.52 659.53 1298.18"/><path class="cls-3" d="M275.75,611.17a47.75,47.75,0,1,1,0-95.5h316.5a47.75,47.75,0,0,1,0,95.5Z"/><path class="cls-1" d="M592.25,520.67A42.87,42.87,0,0,1,635,563.42h0a42.88,42.88,0,0,1-42.75,42.75H275.75A42.88,42.88,0,0,1,233,563.42h0a42.87,42.87,0,0,1,42.76-42.75h316.5m0-10H275.75a52.75,52.75,0,1,0,0,105.5h316.5a52.75,52.75,0,1,0,0-105.5Z"/><text class="cls-4" transform="translate(313.12 578.79)">ご利用方法</text></g><g id="レイヤー_1" data-name="レイヤー 1"><path class="cls-2" d="M508.73,2142.41l3.2-1.85a1.63,1.63,0,1,0-1.63-2.82l-3.2,1.84a1.67,1.67,0,0,0-.81,1.37h0A1.63,1.63,0,0,0,508.73,2142.41Z"/><path class="cls-2" d="M522.84,2122.49,496,2107a2.42,2.42,0,0,0-2.44,0l-26.8,15.47c-2.25,1.08-2.51,1.63-2.51,4.36v30.94a2.42,2.42,0,0,0,1.22,2.11l26.79,15.48c2.18,1.15,3,1.23,5,0l26.8-15.48a2.44,2.44,0,0,0,1.22-2.11v-30.94C525.36,2124.56,524.67,2123.61,522.84,2122.49Zm-28-13.36,26.8,15.47-12.1,7-26.8-15.48Zm-1.3,64.13-26.79-15.47v-30.94l26.79,15.47Zm1.3-33.19L468,2124.6l12.11-7,26.79,15.48Zm28.1,17.72-26.8,15.47v-30.94l26.8-15.47Z"/><path class="cls-2" d="M491.86,192.57l12.83-7.4a6.53,6.53,0,0,0-6.53-11.31l-12.83,7.4a6.55,6.55,0,0,0-3.26,5.46h0A6.53,6.53,0,0,0,491.86,192.57Z"/><path class="cls-2" d="M548.4,112.74,441,50.74a9.78,9.78,0,0,0-9.78,0l-107.39,62c-9.05,4.34-10.09,6.53-10.09,17.48v124a9.78,9.78,0,0,0,4.89,8.47L426,324.7a9.78,9.78,0,0,0,9.78,0,3.37,3.37,0,0,0,.31-.21c.11.07.2.15.31.21a9.78,9.78,0,0,0,9.78,0l107.4-62a9.8,9.8,0,0,0,4.89-8.47v-124C558.49,121.06,555.72,117.23,548.4,112.74ZM436.11,59.21l107.4,62-48.5,28-107.4-62Zm-5.2,257-107.39-62v-124l107.39,62Zm5.2-133-107.39-62,48.49-28,107.4,62Zm112.6,71-107.4,62v-124l107.4-62Z"/><path class="cls-2" d="M639.48,371.58l0-1a11.33,11.33,0,0,0-3.31-7.58,83.85,83.85,0,0,0-.77-11.22,11.15,11.15,0,0,0-1.31-4,11.33,11.33,0,0,0,5.49-10.19,100.91,100.91,0,0,0-1.34-12.48A11.36,11.36,0,0,0,627,315.6a11.24,11.24,0,0,0-2.51.29c-1.84.41-4.21.88-6.5,1.33-2.92.58-5.93,1.17-8.38,1.76-1.66.36-3.3.73-4.94,1.11s-3.11.72-4.69,1.05c-.36.08-.73.18-1.08.29-1.57.5-2.88.83-4.69,1.28l-.92.22a11.42,11.42,0,0,0-4.21,2.06,11.49,11.49,0,0,0-2.18-3.64,11.36,11.36,0,0,0-8.43-3.75h-.23a68.58,68.58,0,0,0-11.57,1.26,11.26,11.26,0,0,0-4.21-2.23l1.31-4c1.6-5,3.25-10.12,5-15a.36.36,0,0,0,0-.09c1.94-5.43,3.3-9.7,4.62-13.82,1.37-4.29,2.67-8.35,4.56-13.56.49-1.19,1-2.55,1.38-3.65l.21-.57A11.35,11.35,0,0,0,572,251.13a77,77,0,0,0-12.9-2.51h-.67a11.35,11.35,0,0,0-7.92,3.22,11.31,11.31,0,0,0-9.6-1,62,62,0,0,0-12.53,5.63l-.3.21a42.69,42.69,0,0,0-18.72-7.26c-2-.31-4.08-.63-6.48-.86l-.32,0-1.17-.09c-1.29-.1-2.9-.23-4.57-.23a11.28,11.28,0,0,0-1.54.11,11.29,11.29,0,0,0-6.16-.33c-1.84.42-4.21.88-6.5,1.33-2.92.58-5.94,1.17-8.39,1.76-1.66.36-3.29.73-4.93,1.11l-3.91.88a11.79,11.79,0,0,0-1.56-.87,49.14,49.14,0,0,0-10.69-3.12c-.7-.14-1.67-.33-2-.42a11.3,11.3,0,0,0-11.89,3.63,11.41,11.41,0,0,0-6-1.69,10.79,10.79,0,0,0-1.86.16,11.14,11.14,0,0,0-1.93.49c-.66.19-1.91.52-3.28.89l-1.43.38a11.35,11.35,0,0,0-7-2.42,10,10,0,0,0-1.44.1c-5,.64-9.26,1.51-10.86,1.86a11.32,11.32,0,0,0-7.22,5.11,11.25,11.25,0,0,0-10.64-7.47h-.23a68.53,68.53,0,0,0-10.85,1.11,12.13,12.13,0,0,0-1.47-1.19,11.39,11.39,0,0,0-6.32-1.92,11.23,11.23,0,0,0-2.51.28c-1.84.42-4.21.88-6.5,1.33-2.92.58-5.94,1.17-8.39,1.76-1.66.36-3.29.73-4.92,1.11s-3.12.72-4.7,1.06a10.25,10.25,0,0,0-1.09.28c-1.56.5-2.81.81-4.69,1.28l-.91.23a11.2,11.2,0,0,0-5.06,2.79,39.66,39.66,0,0,0-7.49-4.63l-.58-.27-.35-.17a21.37,21.37,0,0,0-2.42-1c-1.79-.75-3.48-1.27-5-1.74l-.52-.16a37.37,37.37,0,0,0-11.35-1.58c-1.06,0-2,0-2.82.07A11.33,11.33,0,0,0,288.82,258c-.37,2.48-1,8.82-1.12,12.75a11.33,11.33,0,0,0,4.49,9.36c0,.76.12,2.58.13,2.65.07,1,.07,2.5.07,4.09,0,3.84-.16,8.45-.3,12.51-.08,2.44-.16,4.73-.19,6.63l-.3,7.47c0,.15,0,.3,0,.45a40.67,40.67,0,0,0,.25,5.23A11.28,11.28,0,0,0,287,318a11.6,11.6,0,0,0-1.44.09c-2.46.32-4.73.69-6.6,1a11.44,11.44,0,0,0-7.61-2.91h-.55a41,41,0,0,0-8.33,1c-2.36.57-4.92,1-7.62,1.5l-2.82.5c-2,.29-3.72.71-5.29,1.08-.62.15-1.25.3-1.9.44-.21,0-.43.1-.64.16-3.05.85-5.87,1.74-8.38,2.65a11.32,11.32,0,0,0-7.41,12c.09.82.19,1.95.3,3.18.22,2.62.48,5.58.88,7.89a11.33,11.33,0,0,0,9.62,9.3v3.95c0,3.54,0,7.19.11,10.19v.11c.09,1.94.09,3.89.09,5.78,0,1.46,0,2.62-.07,3.74q0,.38,0,.75c0,.61,0,1.44-.08,2.31-.06,1.1-.12,2.34-.12,3.59a11.34,11.34,0,0,0,11.34,11.33,66.88,66.88,0,0,0,13.32-1,11.23,11.23,0,0,0,5.47-2.88l.26.24a11.36,11.36,0,0,0,7.21,2.59,12.1,12.1,0,0,0,1.47-.1c1.47-.19,4.54-.63,7.84-1.28a11.52,11.52,0,0,0,4.82,1.71c1.66.18,4.07.4,6.39.62l4.12.39a10.87,10.87,0,0,0,1.14.05,11.37,11.37,0,0,0,5-1.19,11.69,11.69,0,0,0-.44,3.15v7.53a12,12,0,0,0,12,12h227a12,12,0,0,0,12-12V400a11.8,11.8,0,0,0-.26-2.46c.94-.35,1.86-.69,2.74-1.05a11.29,11.29,0,0,0,6.75,2.25c.38,0,.76,0,1.14-.05l.8-.08a65.38,65.38,0,0,0,6.66-.9c1-.22,2.09-.4,3.13-.59,1.9-.33,3.86-.68,5.9-1.19,2.33-.53,4.28-1.1,6-1.67a11.32,11.32,0,0,0,11.53,4.66c1.44-.29,2.71-.61,3.74-.86l1.49-.37c2-.42,4-.79,6.2-1.19,4.21-.77,8.56-1.57,13.24-2.86l.7-.22c.22-.06.91-.23,2.7-.59A11.34,11.34,0,0,0,639.65,382C639.74,378,639.59,374.29,639.48,371.58Z"/><path class="cls-3" d="M335.29,283.11a15.34,15.34,0,0,1,.4,6.3c-.8,5.09-3.4,9.28-6.4,13.88A45,45,0,0,1,317.11,315c-2,1.4-4.19,2.3-6.49,3.6-1.1.6-3.4,1.4-4.39,1.79-.8.3-1.9.5-2.7.8a21.14,21.14,0,0,1-.4-3.19,28.15,28.15,0,0,1-.2-4.1c.1-2.49.2-5.09.3-7.59.1-5.09.5-13.08.5-19.47,0-1.8,0-3.5-.1-4.89-.2-3.9-.3-6.4-.4-10.39-1.3-.3-2.8-.1-4.2-.5.1-3.5.7-9.39,1-11.39a30.86,30.86,0,0,1,10.29,1,46.52,46.52,0,0,1,4.89,1.7,22.88,22.88,0,0,1,2.3,1,28.43,28.43,0,0,1,5.79,3.6c1,.79,2.2,1.89,3.2,2.69a33.48,33.48,0,0,1,7,8.79C334.19,279.92,334.69,281.42,335.29,283.11Zm-10.69,1.1a18,18,0,0,0-3.39-5.29c-2.1-1.8-3.4-4.1-7.59-5.39a69.59,69.59,0,0,0-.1,7.59c0,1.09,0,2.19.1,3.29.2,2,.2,4,.2,6.19,0,4.3-.2,8.89-.3,13.69,0,0,8.38-4.8,11.68-14A8.05,8.05,0,0,0,324.6,284.21Z"/><path class="cls-3" d="M365.94,314.77c-6.49,1.8-12.68,2.6-18.77,3.9-1.4.3-3.1.8-5.1,1.2a37,37,0,0,1-.2-4.7c0-1.2,0-2.4.1-3.59.2-5.5.3-11.49.7-17,.1-1.7.2-4.6.2-8,0-2.1,0-4.49-.1-6.79,0-2-.1-1.3,0-3.5-1.3.4-2.49.7-3.69,1-.5-3.59-1.5-7.49-1.2-11.28,2.4-.6,4.09-1,6.29-1.7,3.3-.7,6.49-1.5,9.79-2.2,4.09-1,10.48-2.1,14.88-3.09a88.34,88.34,0,0,1,1.2,11.08c-1.4.2-2.8.5-4.1.8-4.89,1.1-7.59,1.6-13,2.9v1.89c0,4.6.1,5.7.1,10.29v1.7c1.7-.4,3.4-.7,5.09-1.1,3.4-.7,4.1-.7,7.79-1.3a64.67,64.67,0,0,1,.6,11.49c-1.9.3-4.09.4-5.39.69-4.3.8-5.09.7-8.69,1.6-.1,2-.1,3.2-.1,4.6,0,.9,0,1.89.1,3.29,3.7-.9,6.89-1.4,10.29-2.19,4.09-1,3.39-.9,7.19-1.7.1,2.59.3,6.59.2,10.68A37.82,37.82,0,0,0,365.94,314.77Z"/><path class="cls-3" d="M403.09,313.27a93,93,0,0,1-11.58,3.7c-2.8.7-5.8,1.1-8.69,1.7-1.9.4-4.3.6-6.29.8a63.54,63.54,0,0,1-1-9c-.1-2.2-.1-4.3-.1-6.39,0-4.3.1-8.59.1-12.89,0-5,.1-5,.2-10.08,0-3,.1-14.88.6-18.68a59.79,59.79,0,0,1,11.38-1.4c-.2,1.6-.5,7.09-.6,8.59-.6,8.69-1.1,17.28-1.1,26,0,3.79.1,7.59.3,11.28,5.2-.5,7.39-1.7,12.29-3.39.6-.2,1.29-.5,2-.8A58.39,58.39,0,0,1,403.09,313.27Z"/><path class="cls-3" d="M418.37,315.37a95.67,95.67,0,0,1-10.79,2c-.1-1.6.1-3.5.1-5q.3-9,.3-18V263.14c2.3-.5,6-1.2,9.89-1.7,0,3.5-.1,5.2-.1,7.69,0,6.59.2,12.89.2,19.58v3.39C418,299.89,418.37,307.68,418.37,315.37Z"/><path class="cls-3" d="M459.21,262.54c-1,3.1-5.09,18.58-5.89,21.47-1.6,5.1-2.8,12.19-4.29,17.48-.8,3-1.5,6-2.2,9.19l-1.2,7.19a98,98,0,0,1-12.88,1.2c-.6-2.9-1-6-1.7-9.09-1.3-5.59-2.4-11.39-3.5-17.08-.59-3.19-.89-6.29-1.49-9.69-.4-2.19-2.5-14.18-3.4-18.27.9-.4,10.69-2.9,10.69-3,1.39,4.1,3,18,3.59,21.37.7,3.9,2,12.09,2.6,15.88.8-4.09,1.9-9.78,2.8-13.78.69-3,1.49-6.59,2.09-9,.6-2.79,3-14.88,3.6-16.87C450.42,260.24,455.22,260.74,459.21,262.54Z"/><path class="cls-3" d="M488.77,314.77c-6.49,1.8-12.68,2.6-18.77,3.9-1.4.3-3.1.8-5.1,1.2a37,37,0,0,1-.2-4.7c0-1.2,0-2.4.1-3.59.2-5.5.3-11.49.7-17,.1-1.7.2-4.6.2-8,0-2.1,0-4.49-.1-6.79,0-2-.1-1.3,0-3.5-1.3.4-2.5.7-3.69,1-.5-3.59-1.5-7.49-1.2-11.28,2.39-.6,4.09-1,6.29-1.7,3.3-.7,6.49-1.5,9.79-2.2,4.09-1,10.48-2.1,14.88-3.09a88.34,88.34,0,0,1,1.2,11.08c-1.4.2-2.8.5-4.1.8-4.89,1.1-7.59,1.6-13,2.9v1.89c0,4.6.1,5.7.1,10.29v1.7c1.7-.4,3.39-.7,5.09-1.1,3.4-.7,4.1-.7,7.79-1.3a64.67,64.67,0,0,1,.6,11.49c-1.9.3-4.09.4-5.39.69-4.3.8-5.1.7-8.69,1.6-.1,2-.1,3.2-.1,4.6,0,.9,0,1.89.1,3.29,3.69-.9,6.89-1.4,10.29-2.19,4.09-1,3.39-.9,7.19-1.7.1,2.59.3,6.59.2,10.68A37.82,37.82,0,0,0,488.77,314.77Z"/><path class="cls-3" d="M531.81,314.17a49.46,49.46,0,0,1-8.59,7.29,19.64,19.64,0,0,1-2.39-2.59,23.65,23.65,0,0,1-3.2-5c-.6-1.1-1.5-3-2.6-5.49-.4-.8-3.09-7.29-3.09-7.29a17.64,17.64,0,0,0-2.1.9c.1,2.4.1,6,.2,8.29.1,2.49.3,4.49.4,7-3.4.9-7.59,1.9-11.19,1.6-.1-1-.1-2.1-.1-3.1,0-1.9.1-3.59,0-5.29-.1-2.3,0-4.4,0-6.59.1-3.7.1-7.19.3-10.79.1-2.3.3-9,.4-11.78V270.53c-1.2-.2-2.59-.1-3.89-.3,0-1.4,0-3.29.1-4.69a26.24,26.24,0,0,1,.8-6c1.69,0,3.49.19,5,.29,2.1.2,4,.5,5.89.8A30.26,30.26,0,0,1,527,270.93a29.22,29.22,0,0,1,3.29,4.49,11.23,11.23,0,0,1,1.4,4c.5,3.19.8,7-4.29,12.18a29.27,29.27,0,0,1-5.6,4.2,89.2,89.2,0,0,0,4.6,11.08,35.63,35.63,0,0,0,2.89,4.5C530.11,312.38,531,313.27,531.81,314.17Zm-19.17-41a11.26,11.26,0,0,0-2.2-.8c-.2,1.9-.3,3.89-.4,6,0,2.5-.1,8.19-.2,11.88a30.86,30.86,0,0,0,5.69-2.59c4.1-2.6,5.4-4.6,5.4-6.29,0-1.4-.9-2.7-2.1-4.1A17.67,17.67,0,0,0,512.64,273.13Z"/><path class="cls-3" d="M567.46,266c-3.89,10.68-5.39,16.77-9.29,27.66-3.19,8.69-5.79,17.68-8.79,26.37-4.09-.2-8.68-2-10.78-2.8.6-2.1.9-2.6,1.5-4.3,2-5.49,4.29-10.88,6.29-16.27-2.2-5.9-4.9-11.49-7-17.48-.9-2.7-3.9-10.69-4.9-13.18a54.14,54.14,0,0,1,10.19-4.5c.3.8.6,1.7.9,2.6,1.5,4.79,3.89,10.88,6,16.68.4-1.4,1-3.2,1.8-5.6,1.2-3.29,4-12,5.09-15.28A67.74,67.74,0,0,1,569,262C568.56,263.14,568,264.84,567.46,266Z"/><path class="cls-3" d="M261.53,340.23c-.2,6.49-.2,12.68-.2,19,0,4.59.1,9.09.1,12.88v13.49a57.18,57.18,0,0,1-11,.8c0-1.9.2-4.1.2-5.9.1-1.5.1-2.89.1-4.49,0-2,0-4.1-.1-6.29-.1-2.8-.1-6.29-.1-9.79V342.32c-3.3.9-6.49,1.6-9.79,2.4-.5-2.9-.8-8-1.1-10.49,2.5-.9,5.1-1.69,7.59-2.39,2.3-.5,4.4-1.1,6.6-1.4,3.79-.7,7.69-1.3,11.38-2.2a31,31,0,0,1,6.19-.7c.3,2.1.7,7,.8,10.69-1.3.4-2.69.6-4,.9C265.92,339.53,263.72,339.83,261.53,340.23Z"/><path class="cls-3" d="M287.49,383.27a95.67,95.67,0,0,1-10.79,2c-.1-1.6.1-3.5.1-5q.3-9,.3-18V331c2.3-.5,6-1.2,9.89-1.7,0,3.5-.1,5.19-.1,7.69,0,6.59.2,12.88.2,19.57V360C287.09,367.79,287.49,375.58,287.49,383.27Z"/><path class="cls-3" d="M337.42,382.17c-3,.7-9,2.6-11.28,3.1-.6-3.5-.9-6.49-1.2-9.39-.4-3.8-.8-8.69-1.5-12.48-.1-1.1-.4-5.8-.6-8.49-.9,4.79-3.3,19.37-3.39,24.76-3.2.7-7.4,1.4-9.19,1.7-.2-1.1-.7-2.89-1.2-5.89q-.9-5.55-2.4-11.39c-.6-1.89-1.5-5-2.1-7.09-.29,1.8-.79,10.19-.89,12-.2,2.49-.2,5.59-.3,7.89a60.21,60.21,0,0,1-.9,9.78c-3-.29-7.69-.69-10.39-1,.8-5.2.9-10.09,1.4-15.18.6-6.8,1.1-13.69,1.1-23.77V332.24c3-1,10.09-2.1,13.28-2.7,1.3,5.49,2.3,10.39,4,15.38,0,0,1.09,3.1,1.59,4.09,1-3.19,1.6-5.09,1.8-5.89a120.63,120.63,0,0,0,2.6-13.58c1.5-.4,7.29-1.1,8.79-1.3a44.17,44.17,0,0,1,5.39-.6c.3,5.39.3,10.49,1,16.58.4,4.1.8,13.28,1.7,20.67.39,3.3,1.29,9.09,1.69,11.59S337.22,381.37,337.42,382.17Z"/><path class="cls-3" d="M367.08,382.67c-6.49,1.8-12.68,2.6-18.78,3.89-1.39.3-3.09.8-5.09,1.2a36.72,36.72,0,0,1-.2-4.69c0-1.2,0-2.4.1-3.6.2-5.49.3-11.48.7-17,.1-1.7.2-4.6.2-8,0-2.1,0-4.5-.1-6.79,0-2-.1-1.3,0-3.5-1.3.4-2.5.7-3.7,1-.5-3.6-1.49-7.49-1.19-11.29,2.39-.6,4.09-1,6.29-1.69,3.29-.7,6.49-1.5,9.78-2.2,4.1-1,10.49-2.1,14.88-3.1a88.55,88.55,0,0,1,1.2,11.09c-1.39.2-2.79.5-4.09.8-4.89,1.1-7.59,1.6-13,2.89v1.9c0,4.6.1,5.69.1,10.29v1.7c1.69-.4,3.39-.7,5.09-1.1,3.39-.7,4.09-.7,7.79-1.3a64.61,64.61,0,0,1,.6,11.48c-1.9.3-4.1.4-5.39.7-4.3.8-5.1.7-8.69,1.6-.1,2-.1,3.2-.1,4.59,0,.9,0,1.9.1,3.3,3.69-.9,6.89-1.4,10.28-2.2,4.1-1,3.4-.9,7.19-1.69.1,2.59.3,6.59.2,10.68A38.12,38.12,0,0,0,367.08,382.67Z"/><path class="cls-3" d="M409.32,377a31.35,31.35,0,0,1-4.59,6c-3.4,3.29-5.5,5.09-10.39,4.69a23.15,23.15,0,0,1-13.88-6.79c-3.7-3.49-6.29-12-5.79-16.88,1.19-11.88,5-25.56,14.38-33.85,1.59-1.4,5.89-2.8,8-2.8s4.79,1.5,6.39,2.8c3,2.6,4.09,7.09,4.39,10.58a57.57,57.57,0,0,1,.4,7.5,28.21,28.21,0,0,1-.5,6.19,53.07,53.07,0,0,1-9.79.5c-.1-1.4.3-7.39.1-8.79-.2-1.6-.4-5.59-1.59-6.69-1.7,0-3.3,1.39-4.1,2.09-3.69,3.2-6.59,17.68-6.89,22.37-.2,2.7,1.5,8.89,4.4,10.89,1.39,1.1,4,2.1,5.79,1.6,1.6-.5,2.19-1.4,3.39-2.6.5-.6,1.6-2.2,2.4-3.29A52.29,52.29,0,0,1,409.32,377Z"/><path class="cls-3" d="M436.08,375.68l-11.68,1.9c-.9,4.19-2.1,9.38-2.4,10.38a38.77,38.77,0,0,1-11.09-3.09c1.1-2.8,5.2-17.68,5.9-20.58,3.59-13.48,4-17.27,6.19-34.25,1.6-.3,6.09-1.2,7.69-1.4,1.8-.2,4.49-.8,6.59-.9.7,3.3.8,6.59,1.5,9.89,1.5,6.19,2.69,12.48,3.89,18.67.7,3.5,1.6,6.8,2.5,10.09.7,2.4,2.8,12.48,3.69,16.18-2.39,1.3-11.18,2.8-11.08,2.9C437.28,382.67,436.68,379.17,436.08,375.68Zm-9.19-9.49,7.19-.9c-.7-4.29-2.89-14.38-3.49-18.47C429.89,351.81,427.49,361.5,426.89,366.19Z"/><path class="cls-3" d="M485.31,352.51c-.8,3.29-4,7.29-7,9.59A70.9,70.9,0,0,1,466,369.89a17.38,17.38,0,0,0-1.9,1c0,2.09.2,4.19.2,7.09,0,1.39.4,4.79.4,7.29a66.17,66.17,0,0,1-11.39,1.39c0-3.19-.1-6.49-.1-10.88,0-2.4.1-4.69.2-6.89.3-5.69.5-11.49.5-17.08,0-4.29,0-8.59.3-12.68-.1,0-4.09-.5-4.19-.5a68,68,0,0,1,1-11.19c1.2,0,3.29.2,3.29.2,6.39.8,14,2.3,18,4.3a26.14,26.14,0,0,1,10.39,9.28C484.71,344,486.11,349.21,485.31,352.51Zm-20.17-11a64,64,0,0,0-.8,8.89c0,2.7-.2,5.39-.3,8.19,3.3-2.2,6.49-3.79,9.59-6.79C476.92,347.62,468.63,342.92,465.14,341.52Z"/><path class="cls-3" d="M522.66,373a13.9,13.9,0,0,1-8,12.49,23.53,23.53,0,0,1-7.89,1.79c-3,.2-7.59-.1-9.89-1.19a15.74,15.74,0,0,1-5.69-4.2,10.5,10.5,0,0,1-1.9-2.4,14.62,14.62,0,0,1-1.29-6.29,11,11,0,0,1,.69-4.19,66.67,66.67,0,0,1,10.59.4c-.4,2.49-.3,3.89.7,5.19a6.88,6.88,0,0,0,5.19,2.2,8.17,8.17,0,0,0,6-2.1c1.7-1.8-4-4.79-7.09-6.79a116.53,116.53,0,0,1-10.48-7.29c-3.1-2.5-4.3-7.59-4.3-11.89a17.91,17.91,0,0,1,.8-5.29c2.6-7.29,10.29-16,20.08-16,3.29,0,6.79,1.1,8.58,4.6a20.17,20.17,0,0,1,1.5,9.48c0,1.4-.2,9.49-.7,11.19-1.49.1-3,.2-4.49.2-2.6,0-4.39-.2-5.69-.3,0-1,.5-8.19.5-9a16.45,16.45,0,0,0-.4-4.19c-2.1,0-7.19,3.39-8.09,6.09a11,11,0,0,0-.6,3.29c0,4.5,4.19,5.9,8.69,9.29,3.49,2.7,6.79,4,10,7C521.76,367.09,522.66,370.59,522.66,373Z"/><path class="cls-3" d="M552.52,387.36c-1.6-2.09-2.1-5.19-2.6-7.49-3.29,2.8-8,5.8-12.58,6.1-2.5.2-5.79-.2-7.59-2.3-3-3.5-2.6-11.49-2.6-16.48a36.81,36.81,0,0,1,.3-4.69c.1-2.6.2-5.3.4-7.89.1-1.9,1.1-18.88,1.4-20.78a18.77,18.77,0,0,1,.7-3.69,84.83,84.83,0,0,1,11,1.2c-.2.9-.2,1.89-.4,2.89-2.09,12.29-2.59,24.77-2.59,37.15,0,.7-.1,3.1,1.3,3.2a3.43,3.43,0,0,0,1.69-.7,19.33,19.33,0,0,0,1.9-1.6c2.5-2.09,3.4-3.39,5.49-5a53.52,53.52,0,0,1-.2-8.19c0-.5.1-2.3.1-4.59v-4.3c0-8.49.1-14.58.1-20.67a66.46,66.46,0,0,1,11.09-2c-.5,28.17-.5,28.86-.6,29.86-.1,1.9-.1,3.7-.1,5.6a64.71,64.71,0,0,0,3.4,19.57C560.91,384.17,557.21,385.67,552.52,387.36Z"/><path class="cls-3" d="M593.86,381.17a93.19,93.19,0,0,1-11.59,3.7c-2.79.7-5.79,1.1-8.68,1.69-1.9.4-4.3.6-6.3.8a63.26,63.26,0,0,1-1-9c-.1-2.2-.1-4.3-.1-6.4,0-4.29.1-8.58.1-12.88,0-5,.1-5,.2-10.09,0-3,.09-14.88.59-18.67a60,60,0,0,1,11.39-1.4c-.2,1.6-.5,7.09-.6,8.59-.6,8.69-1.1,17.28-1.1,26,0,3.8.1,7.6.3,11.29,5.19-.5,7.39-1.7,12.29-3.4.59-.2,1.29-.49,2-.79A58.39,58.39,0,0,1,593.86,381.17Z"/><path class="cls-3" d="M624.12,382.67c-6.5,1.8-12.69,2.6-18.78,3.89-1.4.3-3.09.8-5.09,1.2a36.72,36.72,0,0,1-.2-4.69c0-1.2,0-2.4.1-3.6.2-5.49.3-11.48.7-17,.1-1.7.2-4.6.2-8,0-2.1,0-4.5-.1-6.79,0-2-.1-1.3,0-3.5-1.3.4-2.5.7-3.7,1-.5-3.6-1.5-7.49-1.2-11.29,2.4-.6,4.1-1,6.3-1.69,3.29-.7,6.49-1.5,9.78-2.2,4.1-1,10.49-2.1,14.88-3.1a88.55,88.55,0,0,1,1.2,11.09c-1.4.2-2.79.5-4.09.8-4.9,1.1-7.59,1.6-13,2.89v1.9c0,4.6.1,5.69.1,10.29v1.7c1.7-.4,3.4-.7,5.1-1.1,3.39-.7,4.09-.7,7.79-1.3a64.61,64.61,0,0,1,.6,11.48c-1.9.3-4.1.4-5.4.7-4.29.8-5.09.7-8.69,1.6-.1,2-.1,3.2-.1,4.59,0,.9,0,1.9.1,3.3,3.7-.9,6.9-1.4,10.29-2.2,4.1-1,3.4-.9,7.19-1.69.1,2.59.3,6.59.2,10.68A37.56,37.56,0,0,0,624.12,382.67Z"/><path class="cls-3" d="M320.67,412.33a8.89,8.89,0,0,0,3.82-7.05l-6.83.52-.17-2.52L333.87,402l.19,2.6-6.57.51c-.32,4.18-1.66,7.09-4.16,9Zm9.65-15.12.21,2.5-10.62,1-.17-2.52Zm1.77-.25a14.71,14.71,0,0,1,2.26,2.58l-1.4,1a11.85,11.85,0,0,0-2.19-2.62Zm1.76-1.55a15.1,15.1,0,0,1,2.31,2.52L334.8,399a12.5,12.5,0,0,0-2.27-2.6Z"/><path class="cls-3" d="M342.67,397.38v9.39h-2.85v-9.39Zm7-.59v4.5c0,4.34-.21,6.23-.89,7.89-.88,2.16-2.66,3.76-5.56,5L341.18,412a8.69,8.69,0,0,0,4.47-3.27c.76-1.3,1.07-3.4,1.07-7.37v-4.52Z"/><path class="cls-3" d="M362,401.29a23.68,23.68,0,0,1-5.56,9.87l-2.58-1.91c2.24-2,4-4.9,5.35-8.91Zm4-1.26a73.36,73.36,0,0,1,7,8.38l-2.6,2.12a95.11,95.11,0,0,0-6.68-8.72Zm2.4-2.31a15.54,15.54,0,0,1,2.35,2.75l-1.58,1.22a17.27,17.27,0,0,0-2.31-2.84Zm2.64-1.24a15.17,15.17,0,0,1,2.35,2.71l-1.53,1.22a13.09,13.09,0,0,0-2.37-2.75Z"/><path class="cls-3" d="M380.47,397.38v9.39h-2.85v-9.39Zm7-.59v4.5c0,4.34-.21,6.23-.89,7.89-.88,2.16-2.66,3.76-5.56,5L379,412a8.69,8.69,0,0,0,4.47-3.27c.76-1.3,1.08-3.4,1.08-7.37v-4.52Z"/><path class="cls-3" d="M410,403.28l.15,2.88-17.26.8-.1-2.8Z"/><path class="cls-3" d="M420.7,412a17.71,17.71,0,0,0,6.53-5.16c-1-.55-1.87-1-2.58-1.37l1.4-2.1c.91.4,1.12.49,2.67,1.24a20,20,0,0,0,1.66-3.67l-3.91.57a22,22,0,0,1-4.24,5.27l-2.2-1.6a22.32,22.32,0,0,0,6-8.94l2.67.86c-.42,1-.61,1.34-.82,1.74l4.37-.52,1.55,1.3a31.23,31.23,0,0,1-2.75,6.25L432.9,407l-1.45,2.43c-.44-.29-1.09-.69-1.91-1.21a18.15,18.15,0,0,1-6.57,5.87Z"/><path class="cls-3" d="M445.48,405.09a27,27,0,0,1-5.15,3.82l-2.26-2.23c4-1.76,8-5.46,11-10.05l2.54,1.57a36.93,36.93,0,0,1-4.62,5.48h1.45v10.37h-2.94Z"/><path class="cls-3" d="M471.08,412.88c-.44-.86-.91-1.77-1.41-2.71-3.32.78-7.89,1.62-11.78,2.16l-.9-3.13,1.66-.12a79.41,79.41,0,0,0,5.41-11.89l2.94,1.12a78.56,78.56,0,0,1-5,10.45c2.05-.21,4.38-.5,6.36-.84-.65-1.05-1.28-2-2-2.92l2.44-1.4a46.41,46.41,0,0,1,4.95,7.68Z"/><path class="cls-3" d="M491.15,400.24c-1.34,11-2.14,13.54-4.28,13.54a8.45,8.45,0,0,1-3.61-1.09l.12-2.6a6.13,6.13,0,0,0,2.38.67c.35,0,.5-.23.82-1.28a40.81,40.81,0,0,0,1.19-6.32l-3.63.33c-1.2,4.47-3.13,7.77-5.73,9.79l-2.48-2a13,13,0,0,0,5.17-7.54l-4.62.42-.13-2.56,5.42-.5c.29-1.47.56-3.13.69-4.43l3,.27c-.21,1.54-.42,2.77-.67,3.89Z"/><path class="cls-3" d="M507.6,398.18l2.12,2.33c-1.85,6.53-5.25,11-10.08,13.14l-2.42-2.33A14.47,14.47,0,0,0,506.29,401l-10.39,1.07-.29-2.75Zm5.62-.52a2.42,2.42,0,1,1-2.39-2.42A2.44,2.44,0,0,1,513.22,397.66Zm-3.57,0a1.16,1.16,0,0,0,2.31,0,1.17,1.17,0,0,0-1.17-1.16A1.16,1.16,0,0,0,509.65,397.66Z"/><path class="cls-3" d="M529.79,412.6a43.33,43.33,0,0,1-6.34.38c-2.85,0-3.71-.17-4.39-.84a2.61,2.61,0,0,1-.65-1.95l0-4.81-4.87,1.39-.65-2.61,5.52-1.47v-5.77l3.05.19-.13,4.81,6.57-1.75,1.87,1.5A33,33,0,0,1,524.9,408l-2.37-1.12a29.25,29.25,0,0,0,3-3.53l-4.24,1.22v4.52c0,1.11.23,1.21,2.5,1.21a37.09,37.09,0,0,0,5.71-.5Z"/><path class="cls-3" d="M538.19,400.22c-.14,7.14-1.07,10.18-3.82,12.68l-2.62-1.79c2.58-1.72,3.55-4.74,3.53-11.08Zm4.39-2-.23,10.46a41.45,41.45,0,0,0,7.54-6.51l.61,3.3a41,41,0,0,1-9.22,7.24l-1.89-1.43.27-13.06Z"/><path class="cls-3" d="M399.6,1331.9l2.37-1.37a1.21,1.21,0,1,0-1.2-2.09l-2.38,1.37a1.2,1.2,0,0,0-.6,1h0A1.21,1.21,0,0,0,399.6,1331.9Z"/><path class="cls-3" d="M366.62,1348.89c0,.37,0,.74,0,1.15,0,.79,0,1.64,0,2.53a5.4,5.4,0,0,0,2.16-2.59,1.49,1.49,0,0,0-.11-1.12,3.18,3.18,0,0,0-.63-1,3.28,3.28,0,0,0-1.4-1,11.92,11.92,0,0,0,0,1.4C366.6,1348.49,366.6,1348.69,366.62,1348.89Z"/><path class="cls-3" d="M403.1,1369.64a.21.21,0,0,0-.21.21.21.21,0,0,0,.22.21.21.21,0,0,0,.21-.21A.21.21,0,0,0,403.1,1369.64Z"/><path class="cls-3" d="M394.66,1359.46a11,11,0,0,0-.15,1.65c0,.5,0,1-.06,1.51a11.29,11.29,0,0,0,1.78-1.25C396.84,1360.59,395.3,1359.72,394.66,1359.46Z"/><path class="cls-3" d="M387.58,1364l1.33-.17c-.13-.79-.54-2.66-.65-3.42C388.13,1361.37,387.69,1363.16,387.58,1364Z"/><path class="cls-3" d="M426.92,1365v-.19a2.09,2.09,0,0,0-.61-1.4,16.07,16.07,0,0,0-.14-2.08,2.16,2.16,0,0,0-.25-.74,2.09,2.09,0,0,0,1-1.88,17.77,17.77,0,0,0-.25-2.31,2.08,2.08,0,0,0-.9-1.4,2.14,2.14,0,0,0-1.17-.35,1.8,1.8,0,0,0-.46,0l-1.21.25c-.54.1-1.1.21-1.55.32l-.91.21-.87.19-.2,0a8.33,8.33,0,0,1-.87.24l-.17,0a2.18,2.18,0,0,0-.78.38,2.06,2.06,0,0,0-2-1.36h0a11.39,11.39,0,0,0-2.14.23,2.17,2.17,0,0,0-.78-.41c.08-.25.16-.51.24-.75.29-.92.6-1.87.93-2.77v0c.36-1,.61-1.79.85-2.56s.5-1.54.85-2.51c.09-.22.18-.47.25-.67l0-.11a2.12,2.12,0,0,0-1.4-2.74,14.66,14.66,0,0,0-2.39-.46h-.12v-21.91a3.19,3.19,0,0,0-1.87-3.23l-19.87-11.48a1.83,1.83,0,0,0-1.81,0l-19.87,11.48c-1.68.8-1.87,1.2-1.87,3.23v22.13h0a7.11,7.11,0,0,0-2.1-.29H364a2.1,2.1,0,0,0-2,1.79c-.07.46-.19,1.63-.21,2.36a2.09,2.09,0,0,0,.83,1.73c0,.14,0,.48,0,.49,0,.19,0,.46,0,.76,0,.71,0,1.56-.06,2.31,0,.45,0,.88,0,1.23l-.06,1.38v.09a6.85,6.85,0,0,0,0,1,2.15,2.15,0,0,0-.9-.2l-.27,0c-.45,0-.87.12-1.22.19a2.1,2.1,0,0,0-1.41-.54h-.1a7.59,7.59,0,0,0-1.54.19c-.44.1-.91.19-1.41.28l-.52.09a9.91,9.91,0,0,0-1,.2l-.35.08-.12,0c-.56.16-1.09.32-1.55.49a2.09,2.09,0,0,0-1.37,2.22c0,.15,0,.36,0,.59.05.48.09,1,.17,1.46a2.07,2.07,0,0,0,1.78,1.72v.73c0,.66,0,1.33,0,1.89v0c0,.36,0,.72,0,1.07s0,.48,0,.69v.14c0,.11,0,.26,0,.43s0,.43,0,.66a2.1,2.1,0,0,0,2.1,2.1,12.47,12.47,0,0,0,2.46-.19,2.16,2.16,0,0,0,1-.54l.05,0a2.11,2.11,0,0,0,1.34.47h.27c.27,0,.84-.12,1.45-.24a2.17,2.17,0,0,0,.89.32l1.18.11.77.07h.21a2,2,0,0,0,.92-.22,2.27,2.27,0,0,0-.08.59v1.39a2.23,2.23,0,0,0,2.22,2.22h42a2.23,2.23,0,0,0,2.22-2.22v-1.39a2.31,2.31,0,0,0-.05-.46l.51-.19a2.08,2.08,0,0,0,1.25.41h.36a11.32,11.32,0,0,0,1.23-.17l.58-.11c.35-.06.71-.12,1.09-.22s.79-.2,1.12-.31a2,2,0,0,0,.49.51,2.1,2.1,0,0,0,1.23.4,3,3,0,0,0,.41,0l.69-.16.28-.07,1.14-.22c.78-.14,1.59-.29,2.45-.53l.13,0s.17,0,.5-.11a2.11,2.11,0,0,0,1.69-2C427,1366.21,426.94,1365.52,426.92,1365Zm-68.7-6-1.24.2c0,1.2,0,2.35,0,3.51,0,.85,0,1.68,0,2.39v2.49a10.41,10.41,0,0,1-2,.15c0-.35,0-.76,0-1.09s0-.54,0-.83,0-.76,0-1.17,0-1.16,0-1.81v-3.25c-.61.17-1.21.3-1.82.44-.09-.53-.14-1.47-.2-1.94.46-.16.94-.31,1.41-.44s.81-.2,1.22-.26c.7-.13,1.42-.24,2.1-.41a6,6,0,0,1,1.15-.13c.05.39.13,1.3.15,2C358.72,1358.93,358.46,1359,358.22,1359Zm1.57,8.54c0-.3,0-.65,0-.93,0-1.11.05-2.22.05-3.32v-5.79c.43-.09,1.11-.22,1.83-.31,0,.64,0,1,0,1.42,0,1.22,0,2.38,0,3.62v.63c0,1.44.07,2.88.07,4.31A20.21,20.21,0,0,1,359.79,1367.56Zm54.08-22.81c-.08.21-.19.52-.28.74-.72,2-1,3.11-1.72,5.12-.59,1.61-1.07,3.27-1.62,4.88a7.07,7.07,0,0,1-2-.52c.11-.38.17-.48.28-.79.37-1,.79-2,1.16-3-.41-1.09-.9-2.13-1.29-3.24-.17-.5-.72-2-.91-2.44a10.1,10.1,0,0,1,1.89-.83l.16.48c.28.89.72,2,1.11,3.09l.33-1c.23-.61.74-2.21.95-2.82A11.79,11.79,0,0,1,413.87,1344.75Zm-3.75-24.39v22.34a2.11,2.11,0,0,0-.74-.14,2,2,0,0,0-.69.12,11.35,11.35,0,0,0-2.32,1l-.06,0a7.94,7.94,0,0,0-3.46-1.34c-.37-.06-.76-.12-1.2-.16h-.28c-.24,0-.53,0-.84,0l-.29,0a2.19,2.19,0,0,0-.67-.11,2.42,2.42,0,0,0-.47.05l-1.2.25c-.54.11-1.1.22-1.55.33l-.92.2-.72.16a2.69,2.69,0,0,0-.29-.16,8.87,8.87,0,0,0-2-.57l-.36-.08a2.06,2.06,0,0,0-.59-.09,2.1,2.1,0,0,0-1.24.41v-10.77ZM406,1353.05a5.34,5.34,0,0,0,.53.83c.15.19.32.35.46.52a8.67,8.67,0,0,1-1.59,1.35,5.34,5.34,0,0,1-.44-.48,4.65,4.65,0,0,1-.59-.92c-.11-.21-.28-.56-.48-1-.07-.15-.57-1.35-.57-1.35a2.63,2.63,0,0,0-.39.17c0,.44,0,1.11,0,1.53s.06.83.08,1.29a6.61,6.61,0,0,1-2.07.3,5.52,5.52,0,0,1,0-.57c0-.35,0-.67,0-1s0-.82,0-1.22c0-.69,0-1.33.06-2,0-.42.05-1.66.07-2.18v-2c-.22,0-.48,0-.72,0,0-.26,0-.61,0-.87a4.58,4.58,0,0,1,.15-1.11c.31,0,.64,0,.92.06s.74.09,1.09.15a5.58,5.58,0,0,1,3.57,1.9,6.1,6.1,0,0,1,.61.83,2.11,2.11,0,0,1,.26.74,2.31,2.31,0,0,1-.8,2.25,5.27,5.27,0,0,1-1,.78A15.26,15.26,0,0,0,406,1353.05Zm-11.26-5c0-.37,0-.24,0-.64l-.68.18a9.56,9.56,0,0,1-.22-2.09c.44-.11.75-.18,1.16-.31l1.81-.41c.76-.18,1.94-.39,2.76-.57a17.74,17.74,0,0,1,.22,2c-.26,0-.52.09-.76.15-.91.2-1.41.29-2.4.53v.36c0,.85,0,1,0,1.9v.31l.94-.2c.63-.13.76-.13,1.44-.24a12.11,12.11,0,0,1,.11,2.13c-.35,0-.76.07-1,.12-.79.15-.94.13-1.61.3,0,.37,0,.59,0,.85s0,.35,0,.61c.69-.17,1.28-.26,1.91-.41s.63-.16,1.33-.31c0,.48.05,1.22,0,2a7.21,7.21,0,0,0-.78.18c-1.2.33-2.35.48-3.48.72-.25.06-.57.15-.94.22a8.24,8.24,0,0,1,0-.86c0-.23,0-.45,0-.67,0-1,.06-2.12.13-3.14,0-.32,0-.85,0-1.48C394.76,1348.91,394.76,1348.47,394.74,1348Zm-6-3.3c.26.75.56,3.32.67,4s.37,2.24.48,2.94c.15-.76.35-1.81.52-2.55.13-.56.27-1.22.38-1.66s.56-2.76.67-3.13a12.17,12.17,0,0,1,2.07.56c-.19.57-.94,3.43-1.09,4-.3.94-.52,2.25-.8,3.23-.14.56-.27,1.11-.4,1.7l-.22,1.33a16.91,16.91,0,0,1-2.39.23c-.11-.54-.18-1.11-.31-1.69-.24-1-.45-2.1-.65-3.16-.11-.59-.17-1.16-.28-1.79-.07-.4-.46-2.62-.62-3.38C387,1345.22,388.77,1344.75,388.77,1344.74Zm.51-37.52,19.88,11.47-9,5.19-19.87-11.48Zm-10.89,6.29L398.26,1325l-9,5.18-19.87-11.48Zm9.93,18.32v10.86l-.25.07-.61.16-.26.07a2.08,2.08,0,0,0-1.29-.44h-.27c-.92.12-1.71.28-2,.35a2.06,2.06,0,0,0-1.33.94,2.21,2.21,0,0,0-.41-.69,2.11,2.11,0,0,0-1.56-.69h0a12.8,12.8,0,0,0-2,.21,2.61,2.61,0,0,0-.27-.22,2.07,2.07,0,0,0-1.17-.36,2.5,2.5,0,0,0-.47.05l-1.2.25c-.54.11-1.1.22-1.55.33l-.91.2-.87.2-.2,0-.87.24-.17,0a2.16,2.16,0,0,0-.94.51,7.25,7.25,0,0,0-1.21-.76v-22.85Zm-2.39,17.86v.63c0,1.44.07,2.88.07,4.3a15.62,15.62,0,0,1-2,.37c0-.29,0-.64,0-.92q.06-1.66.06-3.33V1345c.42-.1,1.11-.22,1.83-.32,0,.65,0,1,0,1.43C385.89,1347.29,385.93,1348.45,385.93,1349.69Zm-5.86,3.36a7.83,7.83,0,0,0,2.27-.63c.11,0,.24-.09.37-.14a10.69,10.69,0,0,1,.46,2,15.86,15.86,0,0,1-2.14.69c-.52.13-1.07.2-1.61.31a10.8,10.8,0,0,1-1.16.15,12.19,12.19,0,0,1-.19-1.66c0-.41,0-.8,0-1.19,0-.79,0-1.58,0-2.38s0-.92,0-1.87c0-.55,0-2.75.11-3.45a11.46,11.46,0,0,1,2.11-.26c0,.29-.09,1.31-.11,1.59-.11,1.61-.21,3.2-.21,4.8C380,1351.67,380,1352.37,380.07,1353.05Zm-16-8.74a5.46,5.46,0,0,1,1.91.19,8,8,0,0,1,.9.31c.13,0,.3.13.43.18a5.67,5.67,0,0,1,1.07.67l.59.5a6,6,0,0,1,1.29,1.62c.13.28.23.56.34.87a2.8,2.8,0,0,1,.07,1.17,6.72,6.72,0,0,1-1.18,2.57,8.43,8.43,0,0,1-2.26,2.16,13.46,13.46,0,0,1-1.2.66c-.2.11-.63.26-.81.34l-.5.14a4.91,4.91,0,0,1-.07-.59,4.71,4.71,0,0,1,0-.75l.06-1.41c0-.94.09-2.42.09-3.6,0-.34,0-.65,0-.91,0-.72-.06-1.18-.07-1.92-.25-.06-.52,0-.78-.09C363.94,1345.77,364.05,1344.68,364.1,1344.31Zm5.08,26.91a2.16,2.16,0,0,1-.76,1.67l-.5-.33a1.65,1.65,0,0,0,.71-1.3l-1.26.1,0-.47,3-.24,0,.48Zm-1.43-1.27,2-.18,0,.46-2,.19Zm2.44.44a2.21,2.21,0,0,0-.4-.48l.25-.19a2.79,2.79,0,0,1,.41.48Zm.35-.28a2.37,2.37,0,0,0-.42-.49l.24-.19a2.83,2.83,0,0,1,.43.47Zm-1.61-2.55c-.11-.65-.16-1.2-.22-1.74-.07-.7-.15-1.61-.27-2.31,0-.2-.08-1.07-.12-1.57a43.6,43.6,0,0,0-.62,4.58c-.6.13-1.37.26-1.7.32,0-.21-.13-.54-.23-1.09a21.46,21.46,0,0,0-.44-2.11c-.11-.35-.28-.93-.39-1.31-.05.33-.15,1.88-.16,2.21s0,1-.06,1.46a10.51,10.51,0,0,1-.17,1.82c-.55-.06-1.42-.13-1.92-.19.15-1,.17-1.87.26-2.81.11-1.26.2-2.53.2-4.4v-2.68c.56-.18,1.87-.38,2.46-.5.24,1,.43,1.93.74,2.85,0,0,.2.57.3.76.18-.59.29-.94.33-1.09a22.89,22.89,0,0,0,.48-2.52c.28-.07,1.35-.2,1.63-.24a9.66,9.66,0,0,1,1-.11c.06,1,.06,1.94.19,3.07.07.76.15,2.46.31,3.83.08.61.24,1.68.32,2.14s.15.91.18,1C370.47,1367.11,369.36,1367.46,368.93,1367.56Zm2.18-22.07c.44-.11.75-.18,1.16-.31l1.81-.41c.76-.18,1.94-.39,2.76-.57a17.74,17.74,0,0,1,.22,2c-.26,0-.52.09-.76.15-.91.2-1.4.29-2.4.53v.36c0,.85,0,1,0,1.9v.31l.94-.2c.63-.13.76-.13,1.44-.24a11.21,11.21,0,0,1,.11,2.13c-.35,0-.76.07-1,.12-.79.15-.94.13-1.6.3,0,.37,0,.59,0,.85s0,.35,0,.61c.68-.17,1.27-.26,1.9-.41s.63-.16,1.33-.31c0,.48,0,1.22,0,2a7.21,7.21,0,0,0-.78.18c-1.2.33-2.35.48-3.47.72-.26.06-.58.15-.95.22a8.24,8.24,0,0,1,0-.86c0-.23,0-.45,0-.67,0-1,.06-2.12.13-3.14,0-.32,0-.85,0-1.48,0-.39,0-.83,0-1.26s0-.24,0-.64l-.68.18A9.56,9.56,0,0,1,371.11,1345.49Zm.21,12.57c.44-.11.76-.19,1.16-.32l1.81-.4c.76-.19,1.94-.39,2.76-.58a18.24,18.24,0,0,1,.22,2.06c-.26,0-.52.09-.76.14-.91.21-1.4.3-2.4.54v.35c0,.85,0,1.05,0,1.9v.32c.31-.08.62-.13.94-.21.63-.12.76-.12,1.44-.24a11.26,11.26,0,0,1,.11,2.13c-.35,0-.76.07-1,.13-.79.15-.94.13-1.6.29,0,.37,0,.6,0,.85s0,.36,0,.61c.68-.16,1.27-.25,1.9-.4s.63-.17,1.33-.32c0,.48.06,1.22,0,2a6.89,6.89,0,0,0-.78.19c-1.2.33-2.35.48-3.47.72-.26,0-.58.14-1,.22a8.43,8.43,0,0,1,0-.87c0-.22,0-.44,0-.67,0-1,.05-2.12.12-3.14,0-.31,0-.85,0-1.48,0-.38,0-.83,0-1.25s0-.24,0-.65c-.24.08-.46.13-.68.19A9.69,9.69,0,0,1,371.32,1358.06Zm5.87,12.31-.3.23a3.44,3.44,0,0,0-.42-.53l.28-.21A2.89,2.89,0,0,1,377.19,1370.37Zm-5.72-.57H372v1.74h-.52Zm1.82.72a3.89,3.89,0,0,1-.16,1.46,1.74,1.74,0,0,1-1,.93l-.38-.41a1.68,1.68,0,0,0,.83-.61,2.89,2.89,0,0,0,.19-1.36v-.84h.55Zm1.25,1.83-.48-.36a3.67,3.67,0,0,0,1-1.64l.52.17A4.41,4.41,0,0,1,374.54,1372.35Zm2.58-.12a18.34,18.34,0,0,0-1.24-1.61l.43-.33a13.75,13.75,0,0,1,1.29,1.55Zm.27-1.87a2.64,2.64,0,0,0-.44-.51l.29-.22a2.51,2.51,0,0,1,.43.5Zm.52-6.74c.23-2.2.93-4.73,2.67-6.26a3,3,0,0,1,1.47-.52,2.24,2.24,0,0,1,1.19.52,3,3,0,0,1,.81,2,10,10,0,0,1,.07,1.39,4.92,4.92,0,0,1-.09,1.15,9.73,9.73,0,0,1-1.81.09c0-.26.06-1.37,0-1.63s-.08-1-.3-1.24a1.26,1.26,0,0,0-.75.39c-.69.59-1.22,3.27-1.28,4.14a2.84,2.84,0,0,0,.81,2,1.07,1.07,0,0,0,1.7-.19c.1-.11.3-.41.45-.61a9.72,9.72,0,0,1,1.46,1.2,6.38,6.38,0,0,1-.85,1.11,2.17,2.17,0,0,1-1.93.87,4.27,4.27,0,0,1-2.56-1.26A4.56,4.56,0,0,1,377.91,1363.62Zm.55,6.18H379v1.74h-.53Zm1.83.72a3.63,3.63,0,0,1-.17,1.46,1.74,1.74,0,0,1-1,.93l-.38-.41a1.64,1.64,0,0,0,.83-.61,2.85,2.85,0,0,0,.2-1.36v-.84h.55Zm1,1,0-.52,3.19-.16,0,.53Zm7.41,0-.27.45-.35-.22a3.49,3.49,0,0,1-1.22,1.09l-.42-.39a3.21,3.21,0,0,0,1.21-1l-.48-.25.26-.39.5.23a3.22,3.22,0,0,0,.3-.68l-.72.11a4.18,4.18,0,0,1-.78,1l-.41-.29a4.14,4.14,0,0,0,1.11-1.66l.49.16a2,2,0,0,1-.15.32l.81-.09.29.24a6,6,0,0,1-.51,1.15A2.9,2.9,0,0,0,388.69,1371.57Zm.59-5.79-2.16.35c-.17.78-.39,1.74-.45,1.93a7.39,7.39,0,0,1-2.05-.58c.21-.51,1-3.27,1.09-3.8a37.3,37.3,0,0,0,1.15-6.34c.29-.06,1.13-.22,1.42-.26s.83-.15,1.22-.17c.13.61.15,1.22.28,1.83.28,1.15.5,2.31.72,3.46.13.64.29,1.25.46,1.86.13.45.52,2.31.68,3a13.48,13.48,0,0,1-2.05.53C389.5,1367.08,389.39,1366.43,389.28,1365.78Zm2.28,5.18v1.92H391v-1.66a4.86,4.86,0,0,1-.95.71l-.42-.41a5.08,5.08,0,0,0,2-1.86l.47.29a6.45,6.45,0,0,1-.86,1Zm.9-5.16c0-.44,0-.87,0-1.27.06-1.06.1-2.13.1-3.16,0-.8,0-1.59.05-2.35l-.77-.09a11.44,11.44,0,0,1,.18-2.07c.22,0,.61,0,.61,0a12.32,12.32,0,0,1,3.33.8,4.72,4.72,0,0,1,1.92,1.72,3,3,0,0,1,.48,2.08,3.83,3.83,0,0,1-1.29,1.78,13.19,13.19,0,0,1-2.28,1.44,3,3,0,0,0-.35.19c0,.38,0,.77,0,1.31,0,.26.07.88.07,1.35a12.82,12.82,0,0,1-2.1.26C392.48,1367.22,392.46,1366.61,392.46,1365.8Zm3.29,6.87c-.08-.16-.16-.33-.26-.51-.61.15-1.46.3-2.17.4l-.17-.57.3,0a14.08,14.08,0,0,0,1-2.2l.54.21a14.7,14.7,0,0,1-.93,1.93c.38,0,.81-.09,1.18-.15a5.67,5.67,0,0,0-.37-.54l.46-.26a8.67,8.67,0,0,1,.91,1.42Zm2.93.16a1.56,1.56,0,0,1-.67-.2l0-.48a1.07,1.07,0,0,0,.44.12c.07,0,.09,0,.15-.23a7,7,0,0,0,.22-1.17l-.67.06a3.27,3.27,0,0,1-1.06,1.81l-.46-.37a2.34,2.34,0,0,0,1-1.39l-.86.08,0-.48,1-.09a6.6,6.6,0,0,0,.13-.82l.55,0c0,.28-.08.51-.13.72l1.19-.11C399.22,1372.37,399.07,1372.83,398.68,1372.83Zm.8-5.9a1.85,1.85,0,0,1-.35-.45,2.63,2.63,0,0,1-.24-1.16,1.91,1.91,0,0,1,.13-.78,12.6,12.6,0,0,1,2,.08,1.09,1.09,0,0,0,.13,1,1.25,1.25,0,0,0,1,.41,1.52,1.52,0,0,0,1.1-.39c.32-.34-.73-.89-1.31-1.26a20.88,20.88,0,0,1-1.94-1.35,2.91,2.91,0,0,1-.79-2.2,3.15,3.15,0,0,1,.15-1,4.32,4.32,0,0,1,3.71-3,1.67,1.67,0,0,1,1.59.85,3.69,3.69,0,0,1,.28,1.75,16.55,16.55,0,0,1-.13,2.07c-.28,0-.56,0-.83,0-.48,0-.82,0-1.06-.06,0-.18.09-1.51.09-1.66a2.92,2.92,0,0,0-.07-.78,2.31,2.31,0,0,0-1.5,1.13,2.19,2.19,0,0,0-.11.61c0,.83.78,1.09,1.61,1.72a22.52,22.52,0,0,1,1.85,1.29,2.06,2.06,0,0,1,.59,1.46,2.56,2.56,0,0,1-1.48,2.31,4.21,4.21,0,0,1-1.46.34,4.52,4.52,0,0,1-1.83-.23A2.93,2.93,0,0,1,399.48,1366.93Zm1.56,5.88-.45-.43a2.67,2.67,0,0,0,1.68-1.91l-1.92.2-.06-.51,2.22-.21.4.43A3.55,3.55,0,0,1,401,1372.81Zm2.07-2.51a.45.45,0,0,1-.45-.45.45.45,0,0,1,.45-.45.45.45,0,0,1,0,.9Zm2.34,2.39c-.53,0-.69,0-.82-.16a.49.49,0,0,1-.12-.36v-.89l-.9.26-.12-.49,1-.27v-1.07l.56,0,0,.89,1.22-.32.34.27a5.75,5.75,0,0,1-.9,1.17l-.43-.21a5.42,5.42,0,0,0,.55-.65l-.79.23v.83c0,.21,0,.23.47.23a6,6,0,0,0,1.05-.1l.06.53A9.42,9.42,0,0,1,405.45,1372.69Zm2,0-.49-.33c.48-.32.66-.88.65-2l.54,0C408.15,1371.64,408,1372.21,407.47,1372.67Zm1.28,0-.35-.26.05-2.42H409l-.05,1.94a7.77,7.77,0,0,0,1.4-1.21l.11.61A7.6,7.6,0,0,1,408.75,1372.64Zm2.08-4.7a3.58,3.58,0,0,1-.49-1.38,4.34,4.34,0,0,1-2.32,1.13,1.72,1.72,0,0,1-1.41-.43c-.55-.65-.48-2.12-.48-3a6.36,6.36,0,0,1,.06-.87c0-.48,0-1,.07-1.46s.2-3.49.26-3.84a3.16,3.16,0,0,1,.13-.68,14.15,14.15,0,0,1,2,.22c0,.16,0,.35-.07.53a40.75,40.75,0,0,0-.48,6.88c0,.13,0,.57.24.59a.67.67,0,0,0,.31-.13,2.38,2.38,0,0,0,.35-.3c.46-.38.63-.62,1-.92a10.47,10.47,0,0,1,0-1.52c0-.09,0-.42,0-.85v-.79c0-1.57,0-2.7,0-3.83a13.14,13.14,0,0,1,2.05-.37c-.09,5.22-.09,5.35-.11,5.53,0,.35,0,.68,0,1a12.1,12.1,0,0,0,.63,3.62A4.7,4.7,0,0,1,410.83,1367.94Zm5.5-.46c-.52.13-1.07.21-1.61.32a10.81,10.81,0,0,1-1.16.14,12.19,12.19,0,0,1-.19-1.66c0-.41,0-.79,0-1.18,0-.8,0-1.59,0-2.39s0-.92,0-1.86c0-.56,0-2.76.11-3.46a11.58,11.58,0,0,1,2.11-.26c0,.3-.09,1.32-.11,1.59-.11,1.61-.2,3.2-.2,4.81,0,.7,0,1.4.05,2.09a8.51,8.51,0,0,0,2.27-.63l.37-.15a11,11,0,0,1,.47,2A16.54,16.54,0,0,1,416.33,1367.48Zm8.52-.59a6.89,6.89,0,0,0-.78.19c-1.2.33-2.34.48-3.47.72-.26,0-.57.14-.94.22a6.33,6.33,0,0,1,0-.87c0-.22,0-.44,0-.67,0-1,.05-2.12.13-3.14,0-.31,0-.85,0-1.48,0-.38,0-.83,0-1.25s0-.24,0-.65c-.24.08-.46.13-.69.19a10.37,10.37,0,0,1-.22-2.09c.45-.11.76-.19,1.17-.32l1.81-.4c.75-.19,1.94-.39,2.75-.58a16.15,16.15,0,0,1,.22,2.06c-.26,0-.52.09-.76.14-.9.21-1.4.3-2.4.54v.35c0,.85,0,1.05,0,1.9v.32c.31-.08.63-.13.94-.21.63-.12.76-.12,1.44-.24a12.06,12.06,0,0,1,.12,2.13c-.36,0-.76.07-1,.13-.8.15-.95.13-1.61.29,0,.37,0,.6,0,.85s0,.36,0,.61c.68-.16,1.27-.25,1.9-.4s.63-.17,1.33-.32C424.83,1365.39,424.87,1366.13,424.85,1366.89Z"/><path class="cls-3" d="M403.45,1346.81a1.66,1.66,0,0,0-.41-.15c0,.35-.06.72-.08,1.11s0,1.51,0,2.2a6,6,0,0,0,1.05-.48c.76-.49,1-.86,1-1.17a1.27,1.27,0,0,0-.39-.76A3.18,3.18,0,0,0,403.45,1346.81Z"/><path class="cls-3" d="M619.35,1333.09l2.38-1.37a1.21,1.21,0,0,0-1.21-2.09l-2.38,1.37a1.2,1.2,0,0,0-.6,1h0A1.21,1.21,0,0,0,619.35,1333.09Z"/><path class="cls-3" d="M586.37,1350.09a10.39,10.39,0,0,1,0,1.14c0,.8,0,1.65-.06,2.53a5.34,5.34,0,0,0,2.16-2.58,1.47,1.47,0,0,0-.11-1.13,3.18,3.18,0,0,0-.63-1,3.3,3.3,0,0,0-1.4-1,12,12,0,0,0,0,1.41C586.35,1349.68,586.35,1349.88,586.37,1350.09Z"/><path class="cls-3" d="M622.85,1370.83a.2.2,0,0,0-.2.21.21.21,0,0,0,.42,0A.21.21,0,0,0,622.85,1370.83Z"/><path class="cls-3" d="M614.41,1360.65a11.12,11.12,0,0,0-.15,1.65c0,.5,0,1-.06,1.51a10.84,10.84,0,0,0,1.78-1.25C616.59,1361.78,615.05,1360.91,614.41,1360.65Z"/><path class="cls-3" d="M607.33,1365.22l1.33-.17c-.13-.79-.54-2.66-.65-3.42C607.88,1362.56,607.44,1364.35,607.33,1365.22Z"/><path class="cls-3" d="M646.67,1366.21V1366a2.09,2.09,0,0,0-.61-1.4,15.76,15.76,0,0,0-.14-2.07,2,2,0,0,0-.25-.74,2.12,2.12,0,0,0,1-1.89,17.77,17.77,0,0,0-.25-2.31,2.1,2.1,0,0,0-.9-1.4,2.14,2.14,0,0,0-1.17-.35,1.8,1.8,0,0,0-.46.05l-1.21.25c-.54.1-1.09.21-1.55.32l-.91.21-.87.19-.2.06c-.29.09-.53.15-.87.23l-.17,0a2.36,2.36,0,0,0-.78.38,2.06,2.06,0,0,0-2-1.36h0a12.3,12.3,0,0,0-2.14.23,2.17,2.17,0,0,0-.78-.41l.24-.75c.3-.92.6-1.87.93-2.77v0c.36-1,.61-1.79.85-2.56s.5-1.54.85-2.51c.09-.22.18-.47.25-.67l0-.11a2.11,2.11,0,0,0-.1-1.67,2.08,2.08,0,0,0-1.3-1.06,13.8,13.8,0,0,0-2.39-.47h-.12v-21.91a3.19,3.19,0,0,0-1.87-3.23l-19.87-11.48a1.83,1.83,0,0,0-1.81,0l-19.87,11.48c-1.68.8-1.87,1.21-1.87,3.23v22.14h0a6.78,6.78,0,0,0-2.1-.3l-.52,0a2.09,2.09,0,0,0-2,1.78c-.07.46-.19,1.63-.21,2.36a2.09,2.09,0,0,0,.83,1.73c0,.14,0,.48,0,.49,0,.19,0,.46,0,.76,0,.71,0,1.56-.05,2.31,0,.46,0,.88,0,1.23l-.06,1.38v.09a6.85,6.85,0,0,0,.05,1,2.15,2.15,0,0,0-.9-.2l-.27,0c-.45.06-.87.12-1.22.19a2.07,2.07,0,0,0-1.4-.54h-.11a7.59,7.59,0,0,0-1.54.19c-.43.11-.91.19-1.41.28l-.52.09a9.91,9.91,0,0,0-1,.2l-.35.08-.12,0c-.56.16-1.08.32-1.55.49a2.09,2.09,0,0,0-1.37,2.22c0,.16,0,.36,0,.59.05.49.09,1,.17,1.46a2.07,2.07,0,0,0,1.78,1.72v.73c0,.66,0,1.33,0,1.89v0c0,.36,0,.72,0,1.07s0,.48,0,.69v.14c0,.11,0,.27,0,.43s0,.43,0,.66a2.08,2.08,0,0,0,2.1,2.1,12.47,12.47,0,0,0,2.46-.19,2.19,2.19,0,0,0,1-.54l0,0a2.11,2.11,0,0,0,1.34.48l.27,0c.27,0,.84-.12,1.45-.24a2.17,2.17,0,0,0,.89.32l1.18.11.77.07.21,0a2.05,2.05,0,0,0,.92-.23,2.33,2.33,0,0,0-.08.59v1.39a2.23,2.23,0,0,0,2.22,2.22h42a2.23,2.23,0,0,0,2.22-2.22v-1.39a2.31,2.31,0,0,0-.05-.46l.51-.19a2.1,2.1,0,0,0,1.25.41h.36a11.32,11.32,0,0,0,1.23-.17l.58-.11c.35-.06.71-.12,1.09-.22s.79-.2,1.12-.3a2.1,2.1,0,0,0,1.72.9,2.85,2.85,0,0,0,.41,0l.69-.16.28-.07,1.15-.22c.77-.14,1.58-.29,2.45-.53l.12,0,.5-.11a2.09,2.09,0,0,0,1.69-2C646.72,1367.4,646.69,1366.72,646.67,1366.21Zm-68.7-6-1.24.2c0,1.2,0,2.35,0,3.51,0,.85,0,1.69,0,2.39v2.49a10.41,10.41,0,0,1-2,.15c0-.35,0-.76,0-1.09s0-.53,0-.83,0-.76,0-1.16,0-1.17,0-1.82v-3.25c-.61.17-1.2.3-1.81.44-.1-.53-.15-1.47-.21-1.94.46-.16.94-.31,1.41-.44s.81-.2,1.22-.26c.7-.13,1.42-.24,2.1-.4a4.77,4.77,0,0,1,1.15-.13c.05.38.13,1.29.15,2C578.47,1360.12,578.21,1360.15,578,1360.21Zm1.57,8.54c0-.3,0-.65,0-.93,0-1.1.05-2.21.05-3.32v-5.79c.43-.09,1.11-.22,1.83-.31,0,.65,0,1,0,1.42,0,1.22,0,2.39,0,3.62v.63c0,1.44.07,2.89.07,4.31A20.21,20.21,0,0,1,579.54,1368.75Zm54.08-22.8c-.07.2-.19.51-.28.73-.72,2-1,3.11-1.72,5.12-.59,1.61-1.07,3.27-1.62,4.88a7.11,7.11,0,0,1-2-.51c.11-.39.17-.49.28-.8.37-1,.79-2,1.16-3-.4-1.09-.9-2.13-1.29-3.24-.17-.49-.72-2-.91-2.44a10.81,10.81,0,0,1,1.89-.83l.16.48c.28.89.73,2,1.11,3.09.08-.26.19-.59.34-1,.22-.61.74-2.22.94-2.83A12.05,12.05,0,0,1,633.62,1346Zm-3.75-24.4v22.35a2,2,0,0,0-.74-.15,2.09,2.09,0,0,0-.69.12,11.88,11.88,0,0,0-2.32,1l-.06,0a7.94,7.94,0,0,0-3.46-1.34c-.37-.06-.76-.12-1.2-.16h-.06l-.22,0c-.24,0-.53,0-.84,0a1.42,1.42,0,0,0-.29,0,1.91,1.91,0,0,0-1.14-.06l-1.2.24c-.54.11-1.1.22-1.55.33l-.91.2-.73.17-.29-.17a8.72,8.72,0,0,0-2-.57l-.36-.08a2.06,2.06,0,0,0-.59-.09,2,2,0,0,0-1.24.42V1333Zm-4.12,32.69a5.34,5.34,0,0,0,.53.83c.15.19.32.36.47.52a9.39,9.39,0,0,1-1.59,1.35,3.52,3.52,0,0,1-.45-.48,4.65,4.65,0,0,1-.59-.92c-.11-.21-.28-.56-.48-1-.07-.15-.57-1.35-.57-1.35a2.63,2.63,0,0,0-.39.17c0,.44,0,1.11,0,1.53s0,.83.07,1.3a6.56,6.56,0,0,1-2.07.29,5.43,5.43,0,0,1,0-.57c0-.35,0-.67,0-1s0-.81,0-1.22c0-.68,0-1.33.06-2,0-.42,0-1.66.07-2.18v-2c-.22,0-.48,0-.72-.06,0-.26,0-.61,0-.87a4.58,4.58,0,0,1,.15-1.11c.31,0,.64,0,.92.06s.74.09,1.09.15a5.58,5.58,0,0,1,3.57,1.9,6.1,6.1,0,0,1,.61.83,2.11,2.11,0,0,1,.26.74,2.33,2.33,0,0,1-.8,2.26,5.32,5.32,0,0,1-1,.77A15.26,15.26,0,0,0,625.75,1354.24Zm-11.26-5c0-.37,0-.25,0-.65l-.68.18a9.56,9.56,0,0,1-.22-2.09c.44-.11.76-.18,1.16-.31l1.81-.41c.76-.18,1.94-.38,2.76-.57a18,18,0,0,1,.22,2c-.26,0-.52.09-.76.15-.9.2-1.4.3-2.4.54v.35c0,.85,0,1,0,1.9v.32c.31-.08.62-.13.94-.21.63-.13.76-.13,1.44-.24a11.21,11.21,0,0,1,.11,2.13c-.35,0-.76.07-1,.13-.79.14-.94.13-1.6.29,0,.37,0,.59,0,.85s0,.35,0,.61c.68-.16,1.27-.26,1.9-.4s.63-.17,1.33-.32c0,.48.06,1.22,0,2a7.21,7.21,0,0,0-.78.18c-1.2.34-2.35.48-3.47.72l-.95.23a8.53,8.53,0,0,1,0-.87c0-.22,0-.45,0-.67,0-1,0-2.12.12-3.14,0-.31,0-.85,0-1.48C614.51,1350.1,614.51,1349.66,614.49,1349.24Zm-6-3.31c.26.75.56,3.32.67,4s.37,2.24.48,2.94c.15-.76.35-1.81.52-2.55.13-.55.28-1.22.39-1.66s.55-2.76.66-3.13a13.19,13.19,0,0,1,2.07.56c-.18.57-.94,3.44-1.09,4-.3.94-.52,2.26-.79,3.24-.15.55-.28,1.1-.41,1.7l-.22,1.33a18.47,18.47,0,0,1-2.39.22c-.11-.54-.18-1.11-.31-1.68-.24-1-.44-2.11-.65-3.16-.11-.6-.16-1.17-.27-1.8-.08-.4-.47-2.62-.63-3.38C606.71,1346.41,608.52,1346,608.52,1345.93Zm.52-37.52,19.87,11.48-9,5.18-19.88-11.48Zm-10.9,6.29L618,1326.18l-9,5.18-19.88-11.47Zm9.93,18.33v10.85l-.25.07-.6.16-.27.07a2.08,2.08,0,0,0-1.29-.44h-.27c-.92.12-1.71.28-2,.35a.88.88,0,1,1-1.74.26,2.09,2.09,0,0,0-1.56-.7h0a12.8,12.8,0,0,0-2,.21,2.61,2.61,0,0,0-.27-.22,2.15,2.15,0,0,0-1.17-.36,1.89,1.89,0,0,0-.47.06l-1.2.24c-.54.11-1.1.22-1.55.33l-.91.2-.87.2-.2,0c-.29.09-.52.15-.87.24l-.17,0a2.08,2.08,0,0,0-.94.52,6.25,6.25,0,0,0-1.21-.77v-22.85Zm-2.39,17.85v.63c0,1.44.07,2.88.07,4.3a15.62,15.62,0,0,1-2,.37c0-.29,0-.64,0-.92,0-1.11.05-2.22.05-3.33v-5.78c.43-.09,1.11-.22,1.83-.32,0,.65,0,1,0,1.43C605.64,1348.48,605.68,1349.64,605.68,1350.88Zm-5.86,3.36a8.14,8.14,0,0,0,2.27-.62l.37-.15a10.8,10.8,0,0,1,.47,2,18.23,18.23,0,0,1-2.15.68c-.52.13-1.07.2-1.61.31a10.8,10.8,0,0,1-1.16.15,10.82,10.82,0,0,1-.18-1.66c0-.41,0-.8,0-1.18,0-.8,0-1.59,0-2.39s0-.92,0-1.86c0-.56,0-2.76.11-3.46a11.58,11.58,0,0,1,2.11-.26c0,.3-.09,1.31-.11,1.59-.11,1.61-.2,3.2-.2,4.81C599.77,1352.86,599.78,1353.56,599.82,1354.24Zm-16-8.74a5.68,5.68,0,0,1,1.9.19,8,8,0,0,1,.9.31,4,4,0,0,1,.43.19,5.26,5.26,0,0,1,1.07.66c.19.15.41.35.59.5a6.31,6.31,0,0,1,1.3,1.63,7.92,7.92,0,0,1,.33.87,2.74,2.74,0,0,1,.07,1.16,6.72,6.72,0,0,1-1.18,2.57,8.54,8.54,0,0,1-2.25,2.16,13.7,13.7,0,0,1-1.21.67c-.2.11-.62.25-.81.33s-.35.09-.5.15a5.3,5.3,0,0,1-.07-.6,4.71,4.71,0,0,1,0-.75c0-.47,0-1,.06-1.41,0-.94.09-2.42.09-3.6,0-.33,0-.65,0-.91,0-.72,0-1.18-.07-1.92-.24,0-.52,0-.78-.09C583.69,1347,583.8,1345.87,583.86,1345.5Zm5.08,26.91a2.16,2.16,0,0,1-.77,1.67l-.5-.32a1.65,1.65,0,0,0,.71-1.31l-1.26.1,0-.47,3-.24,0,.48Zm-1.44-1.27,2-.18,0,.46-2,.19Zm2.45.44a2.23,2.23,0,0,0-.41-.48l.25-.19a3.36,3.36,0,0,1,.42.48Zm.34-.28a2.06,2.06,0,0,0-.42-.48l.24-.2a2.83,2.83,0,0,1,.43.47Zm-1.6-2.55c-.12-.65-.17-1.2-.23-1.74-.07-.7-.14-1.61-.27-2.31,0-.2-.08-1.07-.11-1.57a43.94,43.94,0,0,0-.63,4.58c-.59.13-1.37.26-1.7.32,0-.21-.13-.54-.22-1.09s-.26-1.39-.45-2.11c-.11-.35-.28-.92-.39-1.31-.05.33-.14,1.88-.16,2.22s0,1-.06,1.46a11.5,11.5,0,0,1-.16,1.81c-.56-.06-1.43-.13-1.93-.19.15-1,.17-1.86.26-2.81.11-1.25.21-2.53.21-4.4v-2.68c.55-.18,1.86-.38,2.45-.49.24,1,.43,1.92.74,2.84,0,0,.21.57.3.76.18-.59.29-.94.33-1.09a23.17,23.17,0,0,0,.48-2.51c.28-.08,1.35-.21,1.63-.24a7.4,7.4,0,0,1,1-.12c.05,1,.05,2,.18,3.07.07.76.15,2.46.31,3.83.08.61.25,1.68.32,2.14s.15.91.18,1.06C590.22,1368.3,589.11,1368.66,588.69,1368.75Zm2.17-22.07c.44-.11.76-.18,1.16-.31l1.81-.41c.76-.18,1.94-.38,2.76-.57a18,18,0,0,1,.22,2c-.26,0-.52.09-.76.15-.9.2-1.4.3-2.4.54v.35c0,.85,0,1,0,1.9v.32c.31-.08.63-.13.94-.21.63-.13.76-.13,1.44-.24a11.21,11.21,0,0,1,.11,2.13c-.35,0-.76.07-1,.13-.79.14-.94.13-1.6.29,0,.37,0,.59,0,.85s0,.35,0,.61c.68-.16,1.27-.26,1.9-.4s.63-.17,1.33-.32c0,.48.06,1.22,0,2a7.21,7.21,0,0,0-.78.18c-1.2.34-2.35.48-3.47.72l-1,.23a8.53,8.53,0,0,1,0-.87c0-.22,0-.45,0-.67,0-1,0-2.12.13-3.14,0-.31,0-.85,0-1.48,0-.39,0-.83,0-1.25s0-.25,0-.65l-.68.18A9.56,9.56,0,0,1,590.86,1346.68Zm.21,12.57c.44-.11.76-.19,1.16-.32.61-.12,1.2-.27,1.81-.4s1.94-.39,2.76-.57a17.74,17.74,0,0,1,.22,2c-.26,0-.52.09-.76.14-.9.21-1.4.3-2.4.54v.35c0,.85,0,1.06,0,1.91v.31l.94-.2c.63-.13.76-.13,1.44-.24a11.1,11.1,0,0,1,.11,2.12c-.35.06-.76.08-1,.13-.79.15-.94.13-1.6.3,0,.37,0,.59,0,.85s0,.35,0,.61c.68-.17,1.27-.26,1.9-.41s.63-.17,1.33-.31c0,.48.06,1.22,0,2a6.89,6.89,0,0,0-.78.19c-1.2.33-2.35.48-3.47.72-.26,0-.58.15-.95.22a8.43,8.43,0,0,1,0-.87c0-.22,0-.44,0-.66,0-1,0-2.13.13-3.15,0-.31,0-.85,0-1.47,0-.39,0-.84,0-1.26s0-.24,0-.65c-.24.08-.46.13-.68.19A9.69,9.69,0,0,1,591.07,1359.25Zm5.87,12.31-.29.23a3.58,3.58,0,0,0-.43-.53l.28-.21A2.89,2.89,0,0,1,596.94,1371.56Zm-5.72-.57h.53v1.74h-.53Zm1.82.72a3.89,3.89,0,0,1-.16,1.46,1.74,1.74,0,0,1-1,.93l-.38-.41a1.64,1.64,0,0,0,.83-.61,2.85,2.85,0,0,0,.2-1.36v-.84H593Zm1.25,1.83-.48-.35a3.76,3.76,0,0,0,1-1.65l.52.17A4.41,4.41,0,0,1,594.29,1373.54Zm2.58-.12c-.43-.62-.8-1.1-1.23-1.61l.42-.33a12.76,12.76,0,0,1,1.29,1.55Zm.27-1.87a2.34,2.34,0,0,0-.44-.51l.29-.22a3.48,3.48,0,0,1,.44.5Zm.53-6.74c.22-2.2.92-4.73,2.66-6.26a3,3,0,0,1,1.48-.52,2.25,2.25,0,0,1,1.18.52,2.94,2.94,0,0,1,.81,2,9.68,9.68,0,0,1,.08,1.38,4.87,4.87,0,0,1-.1,1.15,9.7,9.7,0,0,1-1.81.09c0-.26.06-1.37,0-1.63s-.07-1-.3-1.23a1.25,1.25,0,0,0-.75.38c-.69.59-1.22,3.27-1.28,4.14a2.84,2.84,0,0,0,.81,2,1.4,1.4,0,0,0,1.08.29,1.43,1.43,0,0,0,.62-.48c.1-.11.3-.4.45-.61a10.39,10.39,0,0,1,1.46,1.2,5.26,5.26,0,0,1-.85,1.11,2.14,2.14,0,0,1-1.92.87,4.22,4.22,0,0,1-2.57-1.26A4.5,4.5,0,0,1,597.67,1364.81Zm.54,6.18h.53v1.74h-.53Zm1.83.72a3.63,3.63,0,0,1-.17,1.46,1.75,1.75,0,0,1-1,.93l-.39-.41a1.64,1.64,0,0,0,.83-.61,2.85,2.85,0,0,0,.2-1.36v-.84H600Zm1,1,0-.51,3.19-.17,0,.53Zm7.41,0-.27.45-.35-.23a3.32,3.32,0,0,1-1.22,1.09l-.42-.39a3.21,3.21,0,0,0,1.21-1l-.48-.25.27-.39.49.23a3.94,3.94,0,0,0,.31-.68l-.73.11a3.8,3.8,0,0,1-.78,1l-.41-.29a4.14,4.14,0,0,0,1.11-1.66l.49.16a2,2,0,0,1-.15.32l.81-.09.29.24a5.51,5.51,0,0,1-.51,1.16Zm.59-5.8-2.16.36c-.17.77-.39,1.73-.45,1.92a7.39,7.39,0,0,1-2-.58c.21-.51,1-3.27,1.09-3.8a37.3,37.3,0,0,0,1.15-6.34c.3-.06,1.13-.22,1.42-.26s.83-.15,1.22-.17c.13.61.15,1.22.28,1.83.28,1.15.5,2.31.72,3.46.13.65.3,1.26.46,1.87.13.44.52,2.31.69,3a15.25,15.25,0,0,1-2.06.54Zm2.28,5.19v1.92h-.54v-1.66a4.89,4.89,0,0,1-.95.7l-.42-.41a5.08,5.08,0,0,0,2-1.86l.47.29a6.92,6.92,0,0,1-.85,1Zm.9-5.17c0-.44,0-.87,0-1.27,0-1.06.09-2.13.09-3.16,0-.8,0-1.59,0-2.35l-.77-.09a12.42,12.42,0,0,1,.18-2.07c.22,0,.61,0,.61,0a12.32,12.32,0,0,1,3.33.8,4.87,4.87,0,0,1,1.92,1.72,3,3,0,0,1,.48,2.09,3.75,3.75,0,0,1-1.29,1.77,12.61,12.61,0,0,1-2.28,1.44,3,3,0,0,0-.35.19c0,.38,0,.77,0,1.31,0,.26.07.89.07,1.35a12.7,12.7,0,0,1-2.1.26C612.23,1368.42,612.21,1367.81,612.21,1367Zm3.3,6.87c-.09-.16-.17-.33-.26-.5-.62.14-1.46.3-2.18.4l-.17-.58.31,0a15.38,15.38,0,0,0,1-2.19l.54.2a13.71,13.71,0,0,1-.93,1.94c.38,0,.82-.1,1.18-.16l-.36-.54.45-.26a9.12,9.12,0,0,1,.91,1.42Zm2.92.16a1.47,1.47,0,0,1-.67-.2l0-.48a1.17,1.17,0,0,0,.44.13c.07,0,.1,0,.15-.24a6.88,6.88,0,0,0,.23-1.17l-.68.06a3.27,3.27,0,0,1-1.06,1.81l-.46-.36a2.4,2.4,0,0,0,1-1.4l-.85.08,0-.47,1-.1a6.6,6.6,0,0,0,.13-.82l.55.05c0,.29-.08.52-.12.72l1.18-.11C619,1373.56,618.82,1374,618.43,1374Zm.8-5.9a2,2,0,0,1-.35-.44,2.7,2.7,0,0,1-.24-1.17,2,2,0,0,1,.13-.77,11.55,11.55,0,0,1,2,.07,1.09,1.09,0,0,0,.13,1,1.26,1.26,0,0,0,1,.41,1.56,1.56,0,0,0,1.11-.39c.31-.33-.74-.89-1.32-1.26a20.88,20.88,0,0,1-1.94-1.35,2.91,2.91,0,0,1-.79-2.2,3.2,3.2,0,0,1,.15-1,4.34,4.34,0,0,1,3.71-3,1.67,1.67,0,0,1,1.59.85,3.69,3.69,0,0,1,.28,1.75,16.55,16.55,0,0,1-.13,2.07c-.28,0-.56,0-.83,0-.48,0-.82,0-1.06-.06,0-.18.1-1.51.1-1.66a2.75,2.75,0,0,0-.08-.77,2.25,2.25,0,0,0-1.49,1.12,1.92,1.92,0,0,0-.12.61c0,.83.78,1.09,1.61,1.72a20.4,20.4,0,0,1,1.85,1.3,2,2,0,0,1,.59,1.45,2.57,2.57,0,0,1-1.48,2.32,4.44,4.44,0,0,1-1.46.33,4.71,4.71,0,0,1-1.83-.22A3.07,3.07,0,0,1,619.23,1368.12Zm1.56,5.88-.45-.43a2.67,2.67,0,0,0,1.68-1.9l-1.92.19-.05-.5,2.21-.22.4.43A3.53,3.53,0,0,1,620.79,1374Zm2.07-2.51a.45.45,0,0,1-.45-.45.45.45,0,0,1,.45-.45.46.46,0,0,1,.45.45A.45.45,0,0,1,622.86,1371.49Zm2.34,2.39c-.53,0-.69,0-.81-.16a.45.45,0,0,1-.12-.36v-.89l-.9.26-.12-.48,1-.28v-1.07l.57,0,0,.89,1.22-.32.34.27a5.78,5.78,0,0,1-.89,1.17l-.44-.2a6.41,6.41,0,0,0,.55-.66l-.79.23v.83c0,.21.05.23.47.23a7.08,7.08,0,0,0,1-.09l.06.52A9.29,9.29,0,0,1,625.2,1373.88Zm2,0-.49-.33c.48-.32.66-.88.66-2l.54,0C627.9,1372.84,627.73,1373.4,627.22,1373.86Zm1.28,0-.35-.26.05-2.42h.54l0,1.94a7.73,7.73,0,0,0,1.39-1.21l.11.61A7.38,7.38,0,0,1,628.5,1373.83Zm2.08-4.69a3.45,3.45,0,0,1-.48-1.39,4.41,4.41,0,0,1-2.33,1.13,1.74,1.74,0,0,1-1.41-.43c-.55-.64-.48-2.12-.48-3a6.47,6.47,0,0,1,.06-.87c0-.48,0-1,.07-1.46s.21-3.49.26-3.84a3.92,3.92,0,0,1,.13-.68,15.75,15.75,0,0,1,2,.22c0,.16,0,.35-.07.53a40.75,40.75,0,0,0-.48,6.88c0,.13,0,.57.24.59a.58.58,0,0,0,.31-.13,3.34,3.34,0,0,0,.35-.29c.47-.39.63-.63,1-.93a10.37,10.37,0,0,1,0-1.51c0-.1,0-.43,0-.85v-.8c0-1.57,0-2.7,0-3.82a11.12,11.12,0,0,1,2.05-.37c-.09,5.21-.09,5.34-.11,5.52,0,.35,0,.69,0,1a12,12,0,0,0,.63,3.62A4.74,4.74,0,0,1,630.58,1369.14Zm5.5-.47c-.51.13-1.07.21-1.6.32-.36.07-.8.11-1.17.15a11.09,11.09,0,0,1-.18-1.67c0-.4,0-.79,0-1.18,0-.79,0-1.59,0-2.38s0-.93,0-1.87c0-.55,0-2.75.11-3.46a10.9,10.9,0,0,1,2.11-.25c0,.29-.09,1.31-.11,1.58-.11,1.61-.2,3.2-.2,4.81,0,.7,0,1.4,0,2.09a8.32,8.32,0,0,0,2.28-.63l.36-.15a10.2,10.2,0,0,1,.47,2A16.54,16.54,0,0,1,636.08,1368.67Zm8.52-.59a6.15,6.15,0,0,0-.77.19c-1.21.33-2.35.48-3.48.72-.26,0-.57.15-.94.22a6.33,6.33,0,0,1,0-.87c0-.22,0-.44,0-.66,0-1,.06-2.13.13-3.15,0-.31,0-.85,0-1.47,0-.39,0-.84,0-1.26s0-.24,0-.65c-.24.08-.46.13-.69.19a10.37,10.37,0,0,1-.22-2.09c.45-.11.76-.19,1.17-.32.61-.12,1.2-.27,1.81-.4s1.94-.39,2.75-.57a14.14,14.14,0,0,1,.22,2c-.26,0-.51.09-.75.14-.91.21-1.41.3-2.41.54v.35c0,.85,0,1.06,0,1.91v.31l.94-.2c.63-.13.76-.13,1.45-.24a13,13,0,0,1,.11,2.12c-.35.06-.76.08-1,.13-.8.15-.94.13-1.61.3,0,.37,0,.59,0,.85s0,.35,0,.61c.68-.17,1.28-.26,1.9-.41s.63-.17,1.34-.31C644.58,1366.59,644.62,1367.33,644.6,1368.08Z"/><path class="cls-3" d="M623.2,1348a2,2,0,0,0-.41-.15c0,.35-.06.72-.07,1.11s0,1.51,0,2.2a6,6,0,0,0,1.05-.48c.76-.48,1-.85,1-1.17a1.27,1.27,0,0,0-.39-.76A3.32,3.32,0,0,0,623.2,1348Z"/><polygon class="cls-5" points="661.01 1434.1 556.8 1434.1 556.8 1381.86 555.17 1381.86 555.17 1434.1 446.2 1434.1 446.2 1381.86 445.02 1381.86 445.02 1434.1 333.37 1434.1 333.37 1381.86 330.35 1381.86 330.35 1434.1 221.06 1434.1 221.06 1251 330.35 1251 330.35 1297.44 333.37 1297.44 333.37 1251 445.02 1251 445.02 1297.44 446.2 1297.44 446.2 1251 555.17 1251 555.17 1297.44 556.8 1297.44 556.8 1251 661.01 1251 661.01 1301.51 658.05 1301.51 658.05 1253.96 559.77 1253.96 559.77 1300.4 552.2 1300.4 552.2 1253.96 449.17 1253.96 449.17 1300.4 442.06 1300.4 442.06 1253.96 336.34 1253.96 336.34 1300.4 327.39 1300.4 327.39 1253.96 224.03 1253.96 224.03 1431.13 327.39 1431.13 327.39 1378.89 336.34 1378.89 336.34 1431.13 442.06 1431.13 442.06 1378.89 449.17 1378.89 449.17 1431.13 552.2 1431.13 552.2 1378.89 559.77 1378.89 559.77 1431.13 658.05 1431.13 658.05 1378.91 661.01 1378.91 661.01 1434.1"/><rect class="cls-5" x="222.54" y="1298.82" width="2.67" height="2.96"/><path class="cls-5" d="M651.53,1301.79H646.2v-3h5.33Zm-10.66,0h-5.33v-3h5.33Zm-10.65,0h-5.33v-3h5.33Zm-10.66,0h-5.33v-3h5.33Zm-10.66,0h-5.33v-3h5.33Zm-10.66,0h-5.33v-3h5.33Zm-10.66,0h-5.33v-3h5.33Zm-10.65,0H571.6v-3h5.33Zm-10.66,0h-5.33v-3h5.33Zm-10.66,0h-5.33v-3h5.33Zm-10.66,0h-5.33v-3H545Zm-10.66,0H529v-3h5.33Zm-10.65,0h-5.33v-3h5.33Zm-10.66,0h-5.33v-3H513Zm-10.66,0H497v-3h5.33Zm-10.66,0h-5.33v-3h5.33Zm-10.66,0h-5.33v-3H481Zm-10.65,0H465v-3h5.33Zm-10.66,0h-5.33v-3h5.33Zm-10.66,0H443.7v-3H449Zm-10.66,0H433v-3h5.33Zm-10.66,0h-5.33v-3h5.33Zm-10.65,0h-5.33v-3h5.33Zm-10.66,0h-5.33v-3h5.33Zm-10.66,0h-5.33v-3h5.33Zm-10.66,0h-5.33v-3h5.33Zm-10.66,0h-5.33v-3h5.33Zm-10.66,0h-5.32v-3h5.32Zm-10.65,0h-5.33v-3h5.33Zm-10.66,0h-5.33v-3h5.33Zm-10.66,0h-5.33v-3h5.33Zm-10.66,0H315.8v-3h5.33Zm-10.66,0h-5.32v-3h5.32Zm-10.65,0h-5.33v-3h5.33Zm-10.66,0h-5.33v-3h5.33Zm-10.66,0h-5.33v-3h5.33Zm-10.66,0h-5.33v-3h5.33Zm-10.66,0h-5.32v-3h5.32Zm-10.65,0H241.2v-3h5.33Zm-10.66,0h-5.33v-3h5.33Z"/><rect class="cls-5" x="656.86" y="1298.82" width="2.67" height="2.96"/><path class="cls-5" d="M659.53,1382.32h-5.34v-3h5.34Zm-10.67,0h-5.33v-3h5.33Zm-10.67,0h-5.33v-3h5.33Zm-10.66,0h-5.34v-3h5.34Zm-10.67,0h-5.33v-3h5.33Zm-10.67,0h-5.33v-3h5.33Zm-10.66,0h-5.34v-3h5.34Zm-10.67,0h-5.33v-3h5.33Zm-10.67,0h-5.33v-3h5.33Zm-10.66,0h-5.34v-3h5.34Zm-10.67,0h-5.33v-3h5.33Zm-10.67,0h-5.33v-3h5.33Zm-10.67,0h-5.33v-3h5.33Zm-10.66,0h-5.34v-3h5.34Zm-10.67,0h-5.33v-3h5.33Zm-10.67,0h-5.33v-3h5.33Zm-10.66,0h-5.34v-3h5.34Zm-10.67,0h-5.33v-3h5.33Zm-10.67,0h-5.33v-3h5.33Zm-10.66,0h-5.34v-3h5.34Zm-10.67,0h-5.33v-3h5.33Zm-10.67,0h-5.33v-3h5.33Zm-10.66,0h-5.34v-3h5.34Zm-10.67,0h-5.34v-3h5.34Zm-10.67,0h-5.33v-3h5.33Zm-10.67,0h-5.33v-3h5.33Zm-10.66,0h-5.34v-3h5.34Zm-10.67,0h-5.33v-3h5.33Zm-10.67,0h-5.33v-3h5.33Zm-10.66,0h-5.34v-3h5.34Zm-10.67,0h-5.33v-3h5.33Zm-10.67,0h-5.33v-3h5.33Zm-10.66,0h-5.34v-3h5.34Zm-10.67,0h-5.33v-3h5.33Zm-10.67,0h-5.33v-3h5.33Zm-10.67,0h-5.33v-3h5.33Zm-10.66,0h-5.34v-3h5.34Zm-10.67,0h-5.33v-3h5.33Zm-10.67,0h-5.33v-3h5.33Zm-10.66,0h-5.34v-3h5.34Zm-10.67,0h-5.33v-3h5.33Z"/><path class="cls-5" d="M333.58,1380.31h-3V1375h3Zm0-10.67h-3v-5.33h3Zm0-10.67h-3v-5.33h3Zm0-10.66h-3V1343h3Zm0-10.67h-3v-5.33h3Zm0-10.67h-3v-5.33h3Zm0-10.66h-3V1311h3Zm0-10.67h-3v-5.34h3Z"/><path class="cls-5" d="M447.32,1378.93h-3v-5.34h3Zm0-10.67h-3v-5.33h3Zm0-10.67h-3v-5.33h3Zm0-10.66h-3v-5.34h3Zm0-10.67h-3v-5.34h3Zm0-10.67h-3v-5.33h3Zm0-10.67h-3v-5.33h3Zm0-10.66h-3v-5.34h3Z"/><path class="cls-5" d="M557.47,1378.93h-3v-5.34h3Zm0-10.67h-3v-5.33h3Zm0-10.67h-3v-5.33h3Zm0-10.66h-3v-5.34h3Zm0-10.67h-3v-5.34h3Zm0-10.67h-3v-5.33h3Zm0-10.67h-3v-5.33h3Zm0-10.66h-3v-5.34h3Z"/><polygon class="cls-5" points="660.22 1383.86 658.83 1381.24 673.57 1373.43 673.57 1308.36 658.76 1299.45 660.29 1296.91 676.53 1306.68 676.53 1375.21 660.22 1383.86"/><path class="cls-5" d="M661,1378.28h-3v-.21h3Zm0-5.54h-3v-5.33h3Zm0-10.67h-3v-5.33h3Zm0-10.66h-3v-5.34h3Zm0-10.67h-3v-5.33h3Zm0-10.67h-3v-5.33h3Zm0-10.66h-3v-5.34h3Zm0-10.67h-3v-5.34h3Z"/><path class="cls-3" d="M268.19,1319.74a6.23,6.23,0,0,1,0-12.45h13.58a6.23,6.23,0,0,1,0,12.45Z"/><path class="cls-5" d="M281.77,1308.77a4.74,4.74,0,0,1,0,9.48H268.19a4.74,4.74,0,0,1,0-9.48h13.58m0-3H268.19a7.71,7.71,0,0,0,0,15.41h13.58a7.71,7.71,0,0,0,0-15.41Z"/><path class="cls-3" d="M493.38,1319.74a6.23,6.23,0,0,1,0-12.45H507a6.23,6.23,0,0,1,0,12.45Z"/><path class="cls-5" d="M507,1308.77a4.74,4.74,0,0,1,0,9.48H493.38a4.74,4.74,0,0,1,0-9.48H507m0-3H493.38a7.71,7.71,0,0,0,0,15.41H507a7.71,7.71,0,0,0,0-15.41Z"/><text class="cls-4" transform="translate(122 482.72)">未来の自分への宅配サービス</text><text class="cls-6" transform="translate(211.16 659.45)"><tspan xml:space="preserve">step.1   未来の自分に贈りたいものを選ぶ</tspan></text><text class="cls-6" transform="translate(187.16 973.55)"><tspan xml:space="preserve">step.2   必要事項を記入し、送信ボタンを押す</tspan></text><text class="cls-6" transform="translate(223.16 1213.53)"><tspan xml:space="preserve">step.3   専用の段ボールが送られてくる</tspan></text><text class="cls-6" transform="translate(205.16 1548.57)"><tspan xml:space="preserve">step.4   段ボールに贈りたいものを詰めて</tspan><tspan class="cls-7" x="445.68" y="0">、</tspan><tspan x="0" y="28" xml:space="preserve">　　　  近くのコンビニにもっていく</tspan></text><text class="cls-6" transform="translate(295.16 1707.61)"><tspan xml:space="preserve">step.5   普段の生活に戻る</tspan></text><text class="cls-6" transform="translate(372.4 1913.66)"><tspan class="cls-8">～X</tspan><tspan x="51.19" y="0">年後～</tspan></text><text class="cls-6" transform="translate(235.16 2014.71)"><tspan xml:space="preserve">step.6   自宅あてにプレゼントが届く</tspan></text><rect class="cls-2" x="408.43" y="1078.55" width="75.28" height="40.12" rx="12" ry="12"/><path class="cls-2" d="M495.15,1010a3.46,3.46,0,0,0-1.64-2.27L461.08,989a3.43,3.43,0,0,0-4.47.93L445.46,1005a3.4,3.4,0,0,0-.66,2.19l-32.35,18.68a8.94,8.94,0,0,0-1.88,1.11l-12.68-1.2-.32,0a3.43,3.43,0,0,0-1.71,6.39l13.55,7.82v28.62a3,3,0,0,0,1.47,2.56l32.43,18.72c2.64,1.4,3.61,1.49,6.1,0l32.43-18.72a3,3,0,0,0,1.47-2.56v-37.45a6.49,6.49,0,0,0-.47-2.74,4,4,0,0,0,.56-.6l11.15-15.08A3.4,3.4,0,0,0,495.15,1010Z"/><polygon class="cls-1" points="409.4 1035.99 397.57 1029.16 409.42 1030.28 411.2 1030.28 412.36 1031.15 443.55 1049.16 430 1047.88 412.36 1037.69 409.4 1035.99"/><path class="cls-1" d="M444.79,1087.29l-32.43-18.73v-26.91l15.93,9.2a3.43,3.43,0,0,0,1.39.44l13.55,1.28h.32a3.45,3.45,0,0,0,1.24-.23Z"/><polygon class="cls-1" points="480.36 1068.56 447.93 1087.29 447.93 1049.84 480.36 1031.11 480.36 1068.56"/><path class="cls-1" d="M482.12,1023.74l-1.63,2.24-.22-.14-32.21-18.6.16-.22h0l.82-1.11h0l10.32-14,32.44,18.73Z"/><text class="cls-9" transform="translate(423.56 1108.47)">送信</text><path class="cls-2" d="M463.19,1049.94l3.88-2.23a2,2,0,0,0-2-3.42l-3.88,2.24a2,2,0,0,0-1,1.65h0A2,2,0,0,0,463.19,1049.94Z"/><path class="cls-3" d="M485.49,1100.61a2.19,2.19,0,0,1-.67-.11,2,2,0,0,1-1.14-1l-6.95-14.64-7.18,8.11a2,2,0,0,1-1.5.67,2,2,0,0,1-.71-.13,2,2,0,0,1-1.29-1.87v-35.75a2,2,0,0,1,3.33-1.49l27.29,24.23a2,2,0,0,1-1.32,3.49h-.15l-10.22-.76,6.8,14.3a2,2,0,0,1-.95,2.66l-4.48,2.13A2,2,0,0,1,485.49,1100.61Z"/><path class="cls-2" d="M468.05,1055.86l27.3,24.23-13.65-1,8.27,17.4-4.48,2.13-8.26-17.37-9.18,10.37v-35.75m0-4a4,4,0,0,0-4,4v35.75a4,4,0,0,0,2.59,3.74,3.86,3.86,0,0,0,1.41.26,4,4,0,0,0,3-1.35l5.17-5.84,5.66,11.91a4,4,0,0,0,2.27,2.05,3.86,3.86,0,0,0,1.34.23,4.14,4.14,0,0,0,1.72-.38l4.48-2.13a4,4,0,0,0,1.89-5.33l-5.31-11.19,6.78.5h.3a4,4,0,0,0,2.65-7l-27.29-24.23a4,4,0,0,0-2.66-1Z"/><text class="cls-10" transform="translate(491.8 1064.47)">click</text><path class="cls-2" d="M184.15,845.69a37.65,37.65,0,1,0-39.1,0c-9.42,8.62-15.63,23.3-15.63,40h70.35C199.77,869,193.57,854.31,184.15,845.69Zm-12.67-38.6h-4.6V796.32h4.6Zm8.89-10.77H185v10.77h-4.6Z"/><path class="cls-2" d="M337.71,708.66a27.08,27.08,0,0,0-39.46-15.59,27,27,0,0,0-24.54-1.29,27.08,27.08,0,0,0-37.32,18.33,27.09,27.09,0,0,0,18.47,50.69,27,27,0,0,0,34.47,6.26,27.07,27.07,0,0,0,34.35-6.1,27.67,27.67,0,0,0,6.28.74,27.09,27.09,0,0,0,7.75-53Z"/><circle class="cls-2" cx="245.86" cy="781.39" r="10.7"/><circle class="cls-2" cx="220.86" cy="796.32" r="7.15"/><path class="cls-2" d="M379.8,847.31a37.64,37.64,0,1,0-39.1,0c-9.42,8.63-15.62,23.31-15.62,40h70.35C395.43,870.62,389.22,855.94,379.8,847.31Zm-12.67-38.6h-4.59V798h4.59ZM376,798h4.6v10.76H376Z"/><path class="cls-2" d="M533.37,710.28a27.09,27.09,0,0,0-39.46-15.58,27.12,27.12,0,0,0-24.55-1.3,27.09,27.09,0,0,0-37.31,18.33,27.1,27.1,0,0,0,18.47,50.7A27.08,27.08,0,0,0,485,768.69a27.08,27.08,0,0,0,34.34-6.11,27.09,27.09,0,0,0,14-52.3Z"/><circle class="cls-2" cx="441.51" cy="783.02" r="10.7"/><circle class="cls-2" cx="416.51" cy="797.95" r="7.15"/><path class="cls-2" d="M575.46,854.47a37.64,37.64,0,1,0-39.1,0c-9.42,8.62-15.62,23.3-15.62,40h70.34C591.08,877.77,584.88,863.09,575.46,854.47Zm-12.67-38.61h-4.6V805.1h4.6Zm8.89-10.76h4.6v10.76h-4.6Z"/><path class="cls-2" d="M729,717.44a27.08,27.08,0,0,0-39.46-15.59,27.1,27.1,0,0,0-24.54-1.3,27.1,27.1,0,0,0-37.32,18.34,27.09,27.09,0,0,0,18.47,50.69,27.1,27.1,0,0,0,34.48,6.26A27.08,27.08,0,0,0,715,769.73a27.08,27.08,0,0,0,14-52.29Z"/><circle class="cls-2" cx="637.17" cy="790.17" r="10.7"/><circle class="cls-2" cx="612.17" cy="805.1" r="7.15"/><path class="cls-11" d="M283.62,734.07l-17.31-17.31a7.53,7.53,0,0,0-1.86,4.94v16.74A7.56,7.56,0,0,0,272,746h33.92a7.56,7.56,0,0,0,7.54-7.54V721.7a7.48,7.48,0,0,0-1.86-4.94l-17.31,17.31A7.56,7.56,0,0,1,283.62,734.07Z"/><path class="cls-11" d="M305.91,714.16H272a7.52,7.52,0,0,0-5.68,2.6l17.31,17.31a7.56,7.56,0,0,0,10.66,0l17.31-17.31A7.5,7.5,0,0,0,305.91,714.16Z"/><rect class="cls-11" x="458.14" y="719.85" width="45.87" height="33.29" rx="12" ry="12"/><path class="cls-11" d="M481.08,719.85s-15.31.8-14.49-6.77c.35-3.17,4.26-4.35,8.4-2.78C480.35,712.33,481.08,719.85,481.08,719.85Z"/><path class="cls-11" d="M481.08,719.85v33.28"/><path class="cls-11" d="M468,727.78c9.83-2.48,13.1-7.9,13.1-7.9"/><path class="cls-11" d="M481.08,719.85s15.31.8,14.48-6.77c-.34-3.17-4.25-4.35-8.39-2.78C481.81,712.33,481.08,719.85,481.08,719.85Z"/><path class="cls-11" d="M481.08,719.88s3.27,5.42,13.1,7.9"/><line class="cls-11" x1="458.14" y1="736.62" x2="504.01" y2="736.62"/><path class="cls-3" d="M685.19,742.83h-1.55v1.63H672v-9.67h10.64a1.29,1.29,0,0,0,1.27-1.19v-1a1.39,1.39,0,0,0-1.38-1.12H675c-1.38,0-1.92.72-1.92,1.3v1.05H661.81v-1.23c0-5.47,3.69-11.84,12.81-11.84h7.06c7.68,0,13.54,3.62,13.54,10.35v2C695.22,738.92,692.33,742.83,685.19,742.83Z"/><rect class="cls-3" x="671.62" y="747.44" width="12.49" height="9.05" rx="4.53" ry="4.53"/><path class="cls-2" d="M453,1800.47a37.64,37.64,0,1,0-39.1,0c-9.42,8.63-15.62,23.3-15.62,40h70.34C468.59,1823.77,462.39,1809.1,453,1800.47Zm-3.78-49.36h4.6v10.76h-4.6Zm-8.89,10.76h-4.6v-10.76h4.6Zm11.36,16.86a7.73,7.73,0,0,1-3.61.81,6.11,6.11,0,0,1-3.44-.85l1.83-2.38a5.52,5.52,0,0,0,3.89-.28.87.87,0,0,0,.44-.94,1.22,1.22,0,0,0-.48-.92c-.9-.74-2.81-.76-3.68-.7l-.3,0-.31-3,.33,0c2-.22,3.92-.92,4.12-1.39,0,0,0-.08-.11-.24-1.15-2.07-4.15-.95-4.27-.9l-1.1-2.79c1.91-.76,6-1.26,8,2.23a3.18,3.18,0,0,1,.14,3.11,3.76,3.76,0,0,1-1.08,1.21l.15.12a4.26,4.26,0,0,1,1.59,3A3.88,3.88,0,0,1,451.66,1778.73Z"/><path class="cls-2" d="M474.11,1773.13a14.29,14.29,0,0,1,7.19-7.16,15.2,15.2,0,0,1,5.26-1.32,13.93,13.93,0,0,1,2.74.07c.45,0,.91.08,1.35.17l1.32.32c1,.24,1.53.4,2.22.59s1.34.25,2,.41a15.6,15.6,0,0,0,4-.08,15.88,15.88,0,0,0,7.72-4.26,11.09,11.09,0,0,1-6.53,7.93,13.66,13.66,0,0,1-5.5,1l-1.38-.14a6.68,6.68,0,0,1-1.35-.22l-2.43-.62a16.81,16.81,0,0,0-8.22-.36A23.81,23.81,0,0,0,474.11,1773.13Z"/><path class="cls-2" d="M521.91,1740.66a31.88,31.88,0,0,0,6.79,5.36c4.07,2.67,5.11,4,5.11,6.44,0,2.83-1.95,5.92-5.5,8.68l-1.85-1.82c2.31-1.75,3.51-3.64,3.51-5.43,0-1.27-.75-2.15-3.19-3.74a44.63,44.63,0,0,1-4.39-3.28v13c0,4.78-2.56,7.61-6.89,7.61-2.67,0-4.55-1.47-4.55-3.58,0-2.51,2.4-4.42,5.53-4.42a7.6,7.6,0,0,1,2.86.55v-19.41Z"/><path class="cls-2" d="M402.84,2143.36a37.64,37.64,0,1,0-39.1,0c-9.42,8.63-15.62,23.3-15.62,40h70.35C418.47,2166.66,412.26,2152,402.84,2143.36Zm-16.47-31c-1.35-1.91-2.73-2.88-4.08-2.89h0c-2,0-4,2.09-4.54,2.89l-3.22-2.29c.13-.19,3.27-4.55,7.76-4.55,2.71,0,5.17,1.53,7.31,4.55Zm13.07,0-3.22-2.29c.14-.19,3.28-4.55,7.76-4.55,2.72,0,5.18,1.53,7.32,4.55l-3.22,2.29c-1.36-1.91-2.73-2.88-4.09-2.89h0C402,2109.47,400,2111.56,399.44,2112.36Z"/><text class="cls-10" transform="translate(345.65 2058.73)">happy♪</text></g></svg>