<svg id="レイヤー_1" data-name="レイヤー 1" xmlns="http://www.w3.org/2000/svg" viewBox="0 0 425 394"><defs><style>.cls-1{fill:#10567d;}.cls-2{fill:#fff;}</style></defs><title>アートボード 1</title><path class="cls-1" d="M269.81,158.75l12.83-7.41A6.53,6.53,0,0,0,276.11,140l-12.83,7.41A6.53,6.53,0,0,0,260,152.9h0A6.53,6.53,0,0,0,269.81,158.75Z"/><path class="cls-1" d="M326.34,78.92,219,16.92a9.78,9.78,0,0,0-9.78,0l-107.39,62c-9,4.34-10.09,6.52-10.09,17.47v124a9.77,9.77,0,0,0,4.89,8.47l107.39,62a9.78,9.78,0,0,0,9.78,0c.11-.07.2-.15.31-.21s.2.14.31.21a9.78,9.78,0,0,0,9.78,0l107.4-62a9.78,9.78,0,0,0,4.88-8.47v-124C336.43,87.24,333.67,83.41,326.34,78.92ZM214.06,25.38l107.4,62-48.5,28-107.4-62Zm-5.2,257-107.39-62v-124l107.39,62Zm5.2-133-107.39-62,48.49-28,107.4,62Zm112.6,71-107.4,62v-124l107.4-62Z"/><path class="cls-1" d="M417.43,337.75l0-1a11.31,11.31,0,0,0-3.31-7.58,85.86,85.86,0,0,0-.77-11.23,11.22,11.22,0,0,0-1.31-4,11.33,11.33,0,0,0,5.49-10.19,100.71,100.71,0,0,0-1.34-12.47A11.33,11.33,0,0,0,405,281.78a11.23,11.23,0,0,0-2.51.28c-1.84.42-4.21.89-6.5,1.34-2.92.57-5.93,1.17-8.38,1.76-1.66.35-3.3.73-4.94,1.11s-3.11.72-4.69,1.05a9.52,9.52,0,0,0-1.08.29c-1.57.5-2.88.82-4.69,1.27l-.92.23a11.27,11.27,0,0,0-4.21,2.06,11.13,11.13,0,0,0-2.19-3.64,11.32,11.32,0,0,0-8.42-3.75h-.23A68.77,68.77,0,0,0,344.63,285a11.24,11.24,0,0,0-4.21-2.22c.44-1.36.88-2.71,1.31-4.05,1.6-5,3.25-10.11,5-15l0-.09c1.94-5.43,3.3-9.7,4.62-13.82,1.37-4.29,2.67-8.35,4.56-13.57.49-1.19,1-2.54,1.37-3.64l.21-.58A11.34,11.34,0,0,0,350,217.3a78.05,78.05,0,0,0-12.9-2.5l-.67,0A11.31,11.31,0,0,0,328.5,218a11.37,11.37,0,0,0-9.6-1,62.52,62.52,0,0,0-12.53,5.64,3.21,3.21,0,0,0-.3.21,42.68,42.68,0,0,0-18.73-7.26c-2-.31-4.07-.64-6.47-.87l-.32,0-1.17-.09c-1.29-.11-2.9-.24-4.57-.24a11.28,11.28,0,0,0-1.54.12,11.37,11.37,0,0,0-3.65-.62,11.94,11.94,0,0,0-2.52.28c-1.83.42-4.2.89-6.5,1.34-2.91.57-5.93,1.17-8.38,1.76-1.66.35-3.29.73-4.93,1.11l-3.91.88a10.35,10.35,0,0,0-1.57-.87,48.92,48.92,0,0,0-10.68-3.12c-.7-.14-1.67-.33-2-.42a11.3,11.3,0,0,0-11.89,3.63,11.32,11.32,0,0,0-6-1.69,11.76,11.76,0,0,0-1.86.15,11.26,11.26,0,0,0-1.94.5c-.65.19-1.9.52-3.27.89l-1.43.38a11.31,11.31,0,0,0-7-2.42,11.6,11.6,0,0,0-1.44.09c-5,.64-9.26,1.52-10.86,1.87a11.32,11.32,0,0,0-7.22,5.11,11.29,11.29,0,0,0-10.64-7.47h-.23A68.22,68.22,0,0,0,154.58,217a11.2,11.2,0,0,0-7.79-3.12,11.85,11.85,0,0,0-2.51.28c-1.84.42-4.21.89-6.51,1.34-2.91.57-5.93,1.17-8.38,1.76-1.66.35-3.29.73-4.92,1.11s-3.12.72-4.7,1c-.37.08-.73.18-1.09.29-1.56.5-2.81.81-4.69,1.28l-.91.22A11.3,11.3,0,0,0,108,224a39.09,39.09,0,0,0-7.48-4.64l-.58-.27-.35-.16a23.43,23.43,0,0,0-2.43-1c-1.79-.74-3.47-1.27-5-1.73l-.52-.16a37.06,37.06,0,0,0-11.35-1.58c-1.07,0-2,0-2.82.06a11.34,11.34,0,0,0-10.74,9.65c-.37,2.47-1,8.82-1.12,12.74a11.32,11.32,0,0,0,4.48,9.36c0,.76.13,2.58.14,2.66.07,1,.07,2.49.07,4.09,0,3.84-.16,8.44-.3,12.5-.08,2.45-.16,4.73-.2,6.63l-.29,7.47c0,.16,0,.31,0,.46a40.61,40.61,0,0,0,.25,5.22,11.42,11.42,0,0,0-4.85-1.09,11.6,11.6,0,0,0-1.44.09c-2.46.31-4.73.69-6.6,1a11.49,11.49,0,0,0-7.61-2.91l-.55,0a40.29,40.29,0,0,0-8.33,1c-2.36.57-4.92,1-7.63,1.5l-2.81.5c-1.95.28-3.72.7-5.29,1.08l-1.9.43-.65.16c-3,.86-5.86,1.75-8.37,2.65a11.34,11.34,0,0,0-7.41,12c.09.82.19,1.95.3,3.18.22,2.61.48,5.58.88,7.88a11.36,11.36,0,0,0,9.62,9.31v3.95c0,3.53,0,7.19.11,10.19v.11c.09,1.94.09,3.89.09,5.78,0,1.46,0,2.61-.08,3.73,0,.25,0,.51,0,.76,0,.61,0,1.43-.08,2.31-.06,1.1-.12,2.34-.12,3.58a11.34,11.34,0,0,0,11.34,11.34,66.93,66.93,0,0,0,13.32-1A11.24,11.24,0,0,0,47.18,360c.09.08.17.17.26.24a11.34,11.34,0,0,0,7.21,2.59,12.08,12.08,0,0,0,1.47-.09c1.47-.2,4.54-.63,7.84-1.29a11.25,11.25,0,0,0,4.82,1.71c1.66.19,4.06.41,6.39.62l4.12.39a10.88,10.88,0,0,0,1.14.06,11.24,11.24,0,0,0,5-1.2,11.82,11.82,0,0,0-.44,3.16v7.53a12,12,0,0,0,12,12H324a12,12,0,0,0,12-12v-7.53a11.73,11.73,0,0,0-.26-2.46c.94-.35,1.86-.7,2.74-1.05a11.27,11.27,0,0,0,6.75,2.25,10.88,10.88,0,0,0,1.14-.06l.8-.08a60.21,60.21,0,0,0,6.66-.9c1-.21,2.08-.39,3.13-.58,1.9-.34,3.86-.68,5.9-1.19,2.33-.54,4.28-1.1,6-1.67a11.29,11.29,0,0,0,9.31,4.88,11.14,11.14,0,0,0,2.22-.22c1.44-.29,2.71-.61,3.74-.87l1.49-.36c2-.42,4-.8,6.2-1.19,4.21-.77,8.56-1.57,13.24-2.87.24-.06.47-.13.7-.21s.91-.24,2.69-.59a11.35,11.35,0,0,0,9.12-10.85C417.69,344.18,417.54,340.46,417.43,337.75Z"/><path class="cls-2" d="M113.24,249.29a15.64,15.64,0,0,1,.4,6.29c-.8,5.09-3.4,9.29-6.4,13.88a45.07,45.07,0,0,1-12.18,11.69c-2,1.4-4.19,2.3-6.49,3.59-1.1.6-3.4,1.4-4.4,1.8-.8.3-1.89.5-2.69.8a21.41,21.41,0,0,1-.4-3.2,28,28,0,0,1-.2-4.09c.1-2.5.2-5.09.3-7.59.1-5.09.5-13.08.5-19.47,0-1.8,0-3.5-.1-4.9-.2-3.89-.3-6.39-.4-10.39-1.3-.29-2.8-.09-4.2-.49.1-3.5.7-9.39,1-11.39a30.6,30.6,0,0,1,10.29,1,47.32,47.32,0,0,1,4.89,1.7,22.88,22.88,0,0,1,2.3,1,28.06,28.06,0,0,1,5.79,3.59c1,.8,2.2,1.9,3.2,2.7a33.52,33.52,0,0,1,7,8.79A49.89,49.89,0,0,1,113.24,249.29Zm-10.69,1.1a17.69,17.69,0,0,0-3.4-5.29c-2.09-1.8-3.39-4.1-7.59-5.4a69.77,69.77,0,0,0-.1,7.59c0,1.1,0,2.2.1,3.3.2,2,.2,4,.2,6.19,0,4.29-.2,8.89-.3,13.68,0,0,8.39-4.79,11.69-14A8,8,0,0,0,102.55,250.39Z"/><path class="cls-2" d="M143.89,281c-6.49,1.8-12.68,2.59-18.77,3.89-1.4.3-3.1.8-5.1,1.2a36.8,36.8,0,0,1-.2-4.69c0-1.2,0-2.4.1-3.6.2-5.49.3-11.48.7-17,.1-1.69.2-4.59.2-8,0-2.1,0-4.5-.1-6.8,0-2-.1-1.29,0-3.49-1.3.4-2.49.7-3.69,1-.5-3.6-1.5-7.49-1.2-11.29,2.4-.6,4.09-1,6.29-1.7,3.3-.69,6.49-1.49,9.79-2.19,4.09-1,10.48-2.1,14.88-3.1a88.55,88.55,0,0,1,1.2,11.09c-1.4.2-2.8.5-4.1.8-4.89,1.09-7.59,1.59-13,2.89v1.9c0,4.59.1,5.69.1,10.29v1.69c1.7-.4,3.39-.7,5.09-1.09,3.4-.7,4.1-.7,7.79-1.3a64.56,64.56,0,0,1,.6,11.48c-1.9.3-4.09.4-5.39.7-4.3.8-5.1.7-8.69,1.6-.1,2-.1,3.19-.1,4.59,0,.9,0,1.9.1,3.3,3.69-.9,6.89-1.4,10.29-2.2,4.09-1,3.39-.9,7.19-1.7.1,2.6.3,6.59.2,10.69A37.82,37.82,0,0,0,143.89,281Z"/><path class="cls-2" d="M181,279.45a93.19,93.19,0,0,1-11.59,3.7c-2.79.69-5.79,1.09-8.68,1.69-1.9.4-4.3.6-6.3.8a63.24,63.24,0,0,1-1-9c-.1-2.19-.1-4.29-.1-6.39,0-4.29.1-8.59.1-12.88,0-5,.1-5,.2-10.09,0-3,.1-14.88.59-18.67a60,60,0,0,1,11.39-1.4c-.2,1.6-.5,7.09-.6,8.59-.6,8.69-1.1,17.27-1.1,26,0,3.8.1,7.59.3,11.29,5.19-.5,7.39-1.7,12.29-3.4.59-.2,1.29-.5,2-.8A58.7,58.7,0,0,1,181,279.45Z"/><path class="cls-2" d="M196.32,281.55a93.11,93.11,0,0,1-10.79,2c-.1-1.59.1-3.49.1-5q.3-9,.3-18V229.32c2.3-.5,6-1.2,9.89-1.7,0,3.49-.1,5.19-.1,7.69,0,6.59.2,12.88.2,19.57v3.4C195.92,266.07,196.32,273.86,196.32,281.55Z"/><path class="cls-2" d="M237.16,228.72c-1,3.09-5.09,18.57-5.89,21.47-1.6,5.09-2.8,12.18-4.3,17.48-.79,3-1.49,6-2.19,9.18l-1.2,7.19a98,98,0,0,1-12.88,1.2c-.6-2.89-1-6-1.7-9.09-1.3-5.59-2.4-11.38-3.5-17.07-.6-3.2-.9-6.29-1.49-9.69-.4-2.2-2.5-14.18-3.4-18.28.9-.4,10.69-2.89,10.69-3,1.39,4.09,3,18,3.59,21.37.7,3.89,2,12.08,2.6,15.88.8-4.1,1.9-9.79,2.79-13.78.7-3,1.5-6.59,2.1-9,.6-2.8,3-14.88,3.6-16.88C228.37,226.42,233.17,226.92,237.16,228.72Z"/><path class="cls-2" d="M266.72,281c-6.49,1.8-12.68,2.59-18.78,3.89-1.39.3-3.09.8-5.09,1.2a36.8,36.8,0,0,1-.2-4.69c0-1.2,0-2.4.1-3.6.2-5.49.3-11.48.7-17,.1-1.69.2-4.59.2-8,0-2.1,0-4.5-.1-6.8,0-2-.1-1.29,0-3.49-1.3.4-2.5.7-3.7,1-.49-3.6-1.49-7.49-1.19-11.29,2.39-.6,4.09-1,6.29-1.7,3.29-.69,6.49-1.49,9.79-2.19,4.09-1,10.48-2.1,14.88-3.1a88.94,88.94,0,0,1,1.19,11.09c-1.39.2-2.79.5-4.09.8-4.89,1.09-7.59,1.59-13,2.89v1.9c0,4.59.1,5.69.1,10.29v1.69c1.69-.4,3.39-.7,5.09-1.09,3.4-.7,4.09-.7,7.79-1.3a64.56,64.56,0,0,1,.6,11.48c-1.9.3-4.1.4-5.39.7-4.3.8-5.1.7-8.69,1.6-.1,2-.1,3.19-.1,4.59,0,.9,0,1.9.1,3.3,3.69-.9,6.89-1.4,10.28-2.2,4.1-1,3.4-.9,7.19-1.7.1,2.6.3,6.59.2,10.69A38.12,38.12,0,0,0,266.72,281Z"/><path class="cls-2" d="M309.76,280.35a49.92,49.92,0,0,1-8.59,7.29,20.5,20.5,0,0,1-2.4-2.6,23.94,23.94,0,0,1-3.19-5c-.6-1.1-1.5-3-2.6-5.49-.4-.8-3.09-7.29-3.09-7.29a18.81,18.81,0,0,0-2.1.89c.1,2.4.1,6,.2,8.29.1,2.5.3,4.5.4,7-3.4.89-7.59,1.89-11.19,1.59-.1-1-.1-2.09-.1-3.09,0-1.9.1-3.6,0-5.3-.1-2.29,0-4.39,0-6.59.1-3.69.1-7.19.3-10.78.1-2.3.3-9,.4-11.79V236.71c-1.2-.2-2.6-.1-3.89-.3,0-1.4,0-3.3.1-4.7a26.4,26.4,0,0,1,.8-6c1.69,0,3.49.2,5,.3,2.1.2,4,.5,5.89.8A30.21,30.21,0,0,1,305,237.11a28.91,28.91,0,0,1,3.29,4.49,11.25,11.25,0,0,1,1.4,4c.5,3.2.8,7-4.29,12.19a29.22,29.22,0,0,1-5.6,4.19,89.33,89.33,0,0,0,4.6,11.09,34.43,34.43,0,0,0,2.89,4.49C308.06,278.55,309,279.45,309.76,280.35ZM290.58,239.3a10.92,10.92,0,0,0-2.19-.8c-.2,1.9-.3,3.9-.4,6,0,2.49-.1,8.19-.2,11.88a31.61,31.61,0,0,0,5.69-2.6c4.1-2.59,5.39-4.59,5.39-6.29,0-1.4-.9-2.69-2.09-4.09A17.65,17.65,0,0,0,290.58,239.3Z"/><path class="cls-2" d="M345.41,232.21c-3.9,10.69-5.39,16.78-9.29,27.67-3.19,8.68-5.79,17.67-8.79,26.36-4.09-.2-8.69-2-10.78-2.79.6-2.1.9-2.6,1.49-4.3,2-5.49,4.3-10.88,6.3-16.28-2.2-5.89-4.9-11.48-7-17.48-.9-2.69-3.9-10.68-4.9-13.18a53.92,53.92,0,0,1,10.19-4.49c.3.8.6,1.7.9,2.59,1.5,4.8,3.89,10.89,6,16.68.4-1.4,1-3.19,1.8-5.59,1.2-3.3,4-12,5.09-15.28a67.74,67.74,0,0,1,10.49,2.1C346.51,229.32,345.91,231,345.41,232.21Z"/><path class="cls-2" d="M39.47,306.4c-.2,6.49-.2,12.69-.2,19,0,4.59.1,9.08.1,12.88v13.48a57,57,0,0,1-11,.8c0-1.9.2-4.09.2-5.89.1-1.5.1-2.9.1-4.5,0-2,0-4.09-.1-6.29-.1-2.79-.1-6.29-.1-9.78V308.5c-3.3.9-6.49,1.6-9.79,2.4-.5-2.9-.8-8-1.1-10.49,2.5-.9,5.1-1.7,7.59-2.4,2.3-.5,4.4-1.1,6.59-1.4,3.8-.69,7.69-1.29,11.39-2.19a30.87,30.87,0,0,1,6.19-.7c.3,2.1.7,7,.8,10.68-1.3.4-2.7.6-4,.9C43.87,305.7,41.67,306,39.47,306.4Z"/><path class="cls-2" d="M65.44,349.44a95.67,95.67,0,0,1-10.79,2c-.1-1.6.1-3.49.1-5q.3-9,.3-18V297.21c2.3-.5,6-1.19,9.89-1.69,0,3.49-.1,5.19-.1,7.69,0,6.59.2,12.88.2,19.57v3.4C65,334,65.44,341.76,65.44,349.44Z"/><path class="cls-2" d="M115.37,348.35c-3,.7-9,2.59-11.28,3.09-.6-3.49-.9-6.49-1.2-9.39-.4-3.79-.8-8.68-1.5-12.48-.1-1.1-.4-5.79-.6-8.49-.9,4.8-3.3,19.38-3.4,24.77-3.19.7-7.39,1.4-9.18,1.7-.2-1.1-.7-2.9-1.2-5.89q-.9-5.55-2.4-11.39c-.6-1.9-1.5-5-2.1-7.09-.3,1.8-.8,10.19-.9,12-.19,2.5-.19,5.6-.3,7.89a59.16,59.16,0,0,1-.89,9.79c-3-.3-7.69-.7-10.39-1,.8-5.19.9-10.08,1.4-15.18.6-6.79,1.1-13.68,1.1-23.77V298.41c3-1,10.08-2.09,13.28-2.69,1.3,5.49,2.3,10.38,4,15.38,0,0,1.1,3.09,1.6,4.09,1-3.2,1.6-5.09,1.8-5.89a121.06,121.06,0,0,0,2.6-13.58c1.49-.4,7.29-1.1,8.78-1.3a44.57,44.57,0,0,1,5.4-.6c.3,5.39.3,10.48,1,16.58.4,4.09.79,13.28,1.69,20.67.4,3.29,1.3,9.09,1.7,11.58S115.17,347.55,115.37,348.35Z"/><path class="cls-2" d="M145,348.85c-6.49,1.79-12.69,2.59-18.78,3.89-1.4.3-3.09.8-5.09,1.2a36.88,36.88,0,0,1-.2-4.69c0-1.2,0-2.4.1-3.6.2-5.49.3-11.48.7-17,.1-1.7.2-4.59.2-8,0-2.09,0-4.49-.1-6.79,0-2-.1-1.3,0-3.49-1.3.4-2.5.7-3.7,1-.5-3.6-1.5-7.5-1.2-11.29,2.4-.6,4.1-1,6.3-1.7,3.29-.7,6.49-1.5,9.78-2.2,4.1-1,10.49-2.09,14.88-3.09a88.57,88.57,0,0,1,1.2,11.08c-1.4.2-2.79.5-4.09.8-4.9,1.1-7.59,1.6-13,2.9v1.9c0,4.59.1,5.69.1,10.28v1.7c1.7-.4,3.4-.7,5.1-1.1,3.39-.7,4.09-.7,7.79-1.3a64.67,64.67,0,0,1,.6,11.49c-1.9.3-4.1.4-5.4.7-4.29.8-5.09.7-8.68,1.6-.11,2-.11,3.19-.11,4.59,0,.9,0,1.9.11,3.3,3.69-.9,6.89-1.4,10.28-2.2,4.1-1,3.4-.9,7.19-1.7.1,2.6.3,6.59.2,10.69A37.56,37.56,0,0,0,145,348.85Z"/><path class="cls-2" d="M187.27,343.15a30.76,30.76,0,0,1-4.6,6c-3.39,3.29-5.49,5.09-10.38,4.69a23.18,23.18,0,0,1-13.88-6.79c-3.7-3.5-6.3-12-5.8-16.88,1.2-11.88,5-25.57,14.39-33.85,1.59-1.4,5.89-2.8,8-2.8s4.8,1.5,6.4,2.8c3,2.59,4.09,7.09,4.39,10.58a57.41,57.41,0,0,1,.4,7.49,28.15,28.15,0,0,1-.5,6.19,53.07,53.07,0,0,1-9.79.5c-.1-1.4.3-7.39.1-8.79-.2-1.59-.4-5.59-1.59-6.69-1.7,0-3.3,1.4-4.1,2.1-3.69,3.2-6.59,17.68-6.89,22.37-.2,2.7,1.5,8.89,4.39,10.89,1.4,1.09,4,2.09,5.8,1.59,1.59-.5,2.19-1.39,3.39-2.59.5-.6,1.6-2.2,2.4-3.3A53.56,53.56,0,0,1,187.27,343.15Z"/><path class="cls-2" d="M214,341.86l-11.68,1.89c-.9,4.2-2.1,9.39-2.4,10.39a38.51,38.51,0,0,1-11.09-3.1c1.1-2.79,5.2-17.67,5.9-20.57,3.59-13.48,4-17.28,6.19-34.26,1.6-.29,6.09-1.19,7.69-1.39,1.8-.2,4.49-.8,6.59-.9.7,3.29.8,6.59,1.5,9.89,1.49,6.19,2.69,12.48,3.89,18.67.7,3.5,1.6,6.79,2.5,10.09.7,2.39,2.79,12.48,3.69,16.18-2.39,1.29-11.18,2.79-11.08,2.89C215.23,348.85,214.63,345.35,214,341.86Zm-9.19-9.49,7.19-.9c-.7-4.3-2.89-14.38-3.49-18.48C207.84,318,205.44,327.67,204.84,332.37Z"/><path class="cls-2" d="M263.26,318.69c-.8,3.29-4,7.29-7,9.58A69.73,69.73,0,0,1,244,336.06a17.38,17.38,0,0,0-1.9,1c0,2.1.2,4.2.2,7.09,0,1.4.4,4.8.4,7.29a65.36,65.36,0,0,1-11.39,1.4c0-3.19-.1-6.49-.1-10.88,0-2.4.1-4.7.2-6.9.3-5.69.5-11.48.5-17.07,0-4.3,0-8.59.3-12.69-.1,0-4.09-.5-4.19-.5a67.9,67.9,0,0,1,1-11.18c1.19,0,3.29.2,3.29.2,6.39.8,14,2.3,18,4.29a26.14,26.14,0,0,1,10.38,9.29C262.66,310.2,264.06,315.39,263.26,318.69Zm-20.17-11a63.86,63.86,0,0,0-.8,8.89c0,2.69-.2,5.39-.3,8.19,3.29-2.2,6.49-3.8,9.59-6.79C254.87,313.79,246.58,309.1,243.09,307.7Z"/><path class="cls-2" d="M300.61,339.16a13.88,13.88,0,0,1-8,12.48,23.3,23.3,0,0,1-7.89,1.8c-3,.2-7.59-.1-9.89-1.2a15.84,15.84,0,0,1-5.69-4.19,10.5,10.5,0,0,1-1.9-2.4,14.65,14.65,0,0,1-1.3-6.29,10.88,10.88,0,0,1,.7-4.2,66.67,66.67,0,0,1,10.59.4c-.4,2.5-.3,3.9.7,5.2a6.89,6.89,0,0,0,5.19,2.19,8.2,8.2,0,0,0,6-2.09c1.7-1.8-4-4.8-7.09-6.79a114.6,114.6,0,0,1-10.48-7.3c-3.1-2.49-4.3-7.58-4.3-11.88a17.86,17.86,0,0,1,.8-5.29c2.6-7.29,10.29-16,20.07-16,3.3,0,6.8,1.1,8.59,4.59a20.21,20.21,0,0,1,1.5,9.49c0,1.4-.2,9.49-.7,11.19-1.5.09-3,.2-4.49.2-2.6,0-4.4-.2-5.69-.3,0-1,.5-8.19.5-9a16.59,16.59,0,0,0-.4-4.2c-2.1,0-7.19,3.4-8.09,6.09a11,11,0,0,0-.6,3.3c0,4.49,4.19,5.89,8.69,9.29,3.49,2.69,6.79,4,10,7C299.71,333.27,300.61,336.76,300.61,339.16Z"/><path class="cls-2" d="M330.47,353.54c-1.6-2.1-2.1-5.19-2.6-7.49-3.3,2.8-8,5.79-12.58,6.09-2.5.2-5.8-.2-7.59-2.3-3-3.49-2.6-11.48-2.6-16.47a37.08,37.08,0,0,1,.3-4.7c.1-2.59.2-5.29.4-7.89.1-1.89,1.1-18.87,1.4-20.77a18.49,18.49,0,0,1,.7-3.69,82.91,82.91,0,0,1,11,1.19c-.2.9-.2,1.9-.4,2.9-2.09,12.28-2.59,24.77-2.59,37.15,0,.7-.1,3.1,1.29,3.2a3.43,3.43,0,0,0,1.7-.7,19.33,19.33,0,0,0,1.9-1.6c2.5-2.1,3.4-3.4,5.49-5a53.56,53.56,0,0,1-.2-8.19c0-.5.1-2.3.1-4.6v-4.29c0-8.49.1-14.58.1-20.67a66.46,66.46,0,0,1,11.09-2c-.5,28.16-.5,28.86-.6,29.86-.1,1.9-.1,3.69-.1,5.59a65.14,65.14,0,0,0,3.39,19.58C338.86,350.34,335.16,351.84,330.47,353.54Z"/><path class="cls-2" d="M371.81,347.35A93.24,93.24,0,0,1,360.22,351c-2.79.7-5.79,1.1-8.69,1.7a63.16,63.16,0,0,1-6.29.8,63.37,63.37,0,0,1-1-9c-.1-2.2-.1-4.29-.1-6.39,0-4.29.1-8.59.1-12.88,0-5,.1-5,.2-10.09,0-3,.1-14.88.6-18.68a61.05,61.05,0,0,1,11.39-1.39c-.2,1.59-.5,7.09-.6,8.59-.6,8.68-1.1,17.27-1.1,26,0,3.8.1,7.59.3,11.29,5.19-.5,7.39-1.7,12.28-3.4.6-.2,1.3-.5,2-.8A58.5,58.5,0,0,1,371.81,347.35Z"/><path class="cls-2" d="M402.07,348.85c-6.5,1.79-12.69,2.59-18.78,3.89-1.4.3-3.1.8-5.09,1.2a36.88,36.88,0,0,1-.2-4.69c0-1.2,0-2.4.1-3.6.2-5.49.3-11.48.7-17,.1-1.7.2-4.59.2-8,0-2.09,0-4.49-.1-6.79,0-2-.1-1.3,0-3.49-1.3.4-2.5.7-3.7,1-.5-3.6-1.5-7.5-1.2-11.29,2.4-.6,4.1-1,6.29-1.7,3.3-.7,6.5-1.5,9.79-2.2,4.1-1,10.49-2.09,14.88-3.09a88.57,88.57,0,0,1,1.2,11.08c-1.4.2-2.8.5-4.09.8-4.9,1.1-7.59,1.6-13,2.9v1.9c0,4.59.1,5.69.1,10.28v1.7c1.7-.4,3.4-.7,5.1-1.1,3.39-.7,4.09-.7,7.79-1.3a65.76,65.76,0,0,1,.59,11.49c-1.89.3-4.09.4-5.39.7-4.29.8-5.09.7-8.69,1.6-.1,2-.1,3.19-.1,4.59,0,.9,0,1.9.1,3.3,3.7-.9,6.89-1.4,10.29-2.2,4.09-1,3.4-.9,7.19-1.7.1,2.6.3,6.59.2,10.69A37,37,0,0,0,402.07,348.85Z"/><path class="cls-2" d="M98.61,378.51a8.91,8.91,0,0,0,3.83-7.06l-6.83.53-.17-2.52,16.38-1.32.19,2.6-6.57.5c-.32,4.18-1.66,7.1-4.16,9Zm9.66-15.12.21,2.5-10.62,1-.17-2.52Zm1.77-.25a14.4,14.4,0,0,1,2.26,2.58l-1.4,1a11.85,11.85,0,0,0-2.19-2.62Zm1.76-1.55a15.41,15.41,0,0,1,2.31,2.51l-1.37,1.12a12.27,12.27,0,0,0-2.26-2.61Z"/><path class="cls-2" d="M120.62,363.56v9.38h-2.85v-9.38Zm7-.59v4.49c0,4.35-.21,6.24-.88,7.9-.88,2.16-2.66,3.76-5.56,5l-2.06-2.25a8.65,8.65,0,0,0,4.47-3.28c.76-1.3,1.07-3.4,1.07-7.37V363Z"/><path class="cls-2" d="M139.94,367.46a23.68,23.68,0,0,1-5.56,9.87l-2.59-1.91c2.25-2,4-4.89,5.36-8.9Zm4-1.26a75.13,75.13,0,0,1,7,8.38l-2.6,2.12a96.72,96.72,0,0,0-6.68-8.71Zm2.39-2.31a15.51,15.51,0,0,1,2.36,2.75l-1.58,1.22a16.84,16.84,0,0,0-2.31-2.83Zm2.65-1.23a15.59,15.59,0,0,1,2.35,2.7l-1.53,1.22a13.61,13.61,0,0,0-2.37-2.75Z"/><path class="cls-2" d="M158.42,363.56v9.38h-2.85v-9.38Zm7-.59v4.49c0,4.35-.21,6.24-.88,7.9-.88,2.16-2.66,3.76-5.56,5l-2.06-2.25a8.65,8.65,0,0,0,4.47-3.28c.76-1.3,1.07-3.4,1.07-7.37V363Z"/><path class="cls-2" d="M187.92,369.46l.15,2.88-17.26.79-.1-2.79Z"/><path class="cls-2" d="M198.65,378.15a17.9,17.9,0,0,0,6.53-5.16c-1-.55-1.87-1-2.58-1.37l1.4-2.1c.91.4,1.12.48,2.67,1.24a21,21,0,0,0,1.66-3.67l-3.91.56a21.82,21.82,0,0,1-4.24,5.27l-2.2-1.59a22.36,22.36,0,0,0,6-8.95l2.67.86c-.42,1-.61,1.35-.82,1.75l4.37-.53,1.55,1.3A31.07,31.07,0,0,1,209,372c.71.44,1.32.82,1.85,1.13l-1.45,2.44-1.91-1.22a18.18,18.18,0,0,1-6.57,5.88Z"/><path class="cls-2" d="M223.43,371.26a26.67,26.67,0,0,1-5.15,3.83L216,372.86c4-1.76,8-5.46,11-10.06l2.54,1.58a38.2,38.2,0,0,1-4.62,5.48h1.45v10.37h-2.94Z"/><path class="cls-2" d="M249,379.05q-.66-1.29-1.41-2.7c-3.32.77-7.9,1.61-11.78,2.16l-.9-3.13,1.66-.13A79.76,79.76,0,0,0,242,363.37l2.94,1.11a79.38,79.38,0,0,1-5,10.46c2.05-.21,4.38-.51,6.36-.84-.65-1.05-1.28-2-2-2.92l2.44-1.41a47.13,47.13,0,0,1,5,7.69Z"/><path class="cls-2" d="M269.1,366.41c-1.34,11-2.14,13.55-4.28,13.55a8.48,8.48,0,0,1-3.61-1.1l.12-2.6a6.1,6.1,0,0,0,2.37.67c.36,0,.51-.23.82-1.28a40.63,40.63,0,0,0,1.2-6.32l-3.63.34c-1.2,4.47-3.13,7.77-5.73,9.78l-2.48-2a12.93,12.93,0,0,0,5.16-7.54l-4.61.42-.13-2.56,5.42-.5c.29-1.47.56-3.13.69-4.43l3,.27c-.21,1.53-.42,2.77-.67,3.88Z"/><path class="cls-2" d="M285.54,364.36l2.13,2.33c-1.85,6.53-5.25,11-10.08,13.14l-2.42-2.33a14.49,14.49,0,0,0,9.07-10.29l-10.39,1.07-.29-2.75Zm5.63-.53a2.42,2.42,0,1,1-2.39-2.41A2.45,2.45,0,0,1,291.17,363.83Zm-3.57,0a1.16,1.16,0,1,0,2.31,0,1.16,1.16,0,0,0-1.17-1.15A1.15,1.15,0,0,0,287.6,363.83Z"/><path class="cls-2" d="M307.74,378.78a44.88,44.88,0,0,1-6.34.38c-2.85,0-3.71-.17-4.39-.84a2.61,2.61,0,0,1-.65-1.95l0-4.81-4.87,1.38-.65-2.6,5.52-1.47V363.1l3.05.19-.13,4.8,6.57-1.74,1.87,1.49a32.31,32.31,0,0,1-4.85,6.32l-2.37-1.11a30,30,0,0,0,3-3.53l-4.24,1.22v4.51c0,1.12.23,1.22,2.5,1.22a38.39,38.39,0,0,0,5.71-.5Z"/><path class="cls-2" d="M316.14,366.39c-.14,7.14-1.07,10.19-3.82,12.68l-2.62-1.78c2.58-1.72,3.55-4.75,3.52-11.09Zm4.39-1.95-.23,10.46a41.84,41.84,0,0,0,7.54-6.51l.61,3.29a41.07,41.07,0,0,1-9.22,7.25l-1.89-1.43.27-13.06Z"/></svg>